<svg width="200" height="200" viewBox="0 0 200 200" fill="none" xmlns="http://www.w3.org/2000/svg">
<g clip-path="url(#clip0_3189_34)">
<path d="M91.9173 1.60025C95.4074 -0.41473 99.7073 -0.414729 103.197 1.60025L179.954 45.9157C183.444 47.9307 185.594 51.6545 185.594 55.6845V144.315C185.594 148.345 183.444 152.069 179.954 154.084L103.197 198.4C99.7073 200.415 95.4074 200.415 91.9173 198.4L15.1607 154.084C11.6706 152.069 9.52068 148.345 9.52068 144.315V55.6845C9.52068 51.6545 11.6706 47.9307 15.1607 45.9157L91.9173 1.60025Z" fill="url(#paint0_radial_3189_34)"/>
<path d="M93.7922 6.98291C96.1219 5.63781 98.9923 5.63781 101.322 6.98291L176.23 50.2311C178.56 51.5762 179.995 54.0621 179.995 56.7523V143.249C179.995 145.939 178.56 148.425 176.23 149.77L101.322 193.018C98.9923 194.363 96.1219 194.363 93.7921 193.018L18.884 149.77C16.5543 148.425 15.119 145.939 15.119 143.249V56.7523C15.119 54.0621 16.5543 51.5762 18.884 50.2311L93.7922 6.98291Z" fill="url(#paint1_radial_3189_34)" stroke="url(#paint2_linear_3189_34)" stroke-width="0.94"/>
<g filter="url(#filter0_d_3189_34)">
<path d="M68.07 129.889V88.8889L58.722 90.9389L55.278 76.7529L72.416 72.0789H86.93V129.889H68.07ZM116.358 130.955C101.516 130.955 91.3477 123.985 91.3477 114.063V113.899C91.3477 106.929 95.4477 102.665 101.68 100.123C97.3337 97.9089 93.3157 93.9729 93.3157 87.6589V87.4949C93.3157 78.0649 102.746 71.4229 116.358 71.4229C129.97 71.4229 139.4 78.0649 139.4 87.4949V87.6589C139.4 93.9729 135.382 97.9089 131.036 100.123C136.94 102.501 141.368 106.601 141.368 113.899V114.063C141.368 124.149 131.2 130.955 116.358 130.955ZM116.358 95.6129C119.884 95.6129 122.344 93.2349 122.344 90.0369V89.8729C122.344 87.0029 119.966 84.4609 116.358 84.4609C112.75 84.4609 110.372 87.0029 110.372 89.8729V90.0369C110.372 93.2349 112.832 95.6129 116.358 95.6129ZM116.358 117.671C120.868 117.671 123 114.801 123 111.931V111.767C123 108.569 120.376 106.191 116.358 106.191C112.34 106.191 109.716 108.569 109.716 111.767V111.931C109.716 114.801 111.848 117.671 116.358 117.671Z" fill="white"/>
</g>
<path d="M61.5483 163.007V148.433H56.4956V144.688H71.2476V148.433H66.1948V163.007H61.5483ZM73.2153 163.007V144.688H77.8745V151.886H85.1743V144.688H89.8208V163.007H85.1743V155.631H77.8745V163.007H73.2153ZM101.729 143.165H98.8472L101.145 138.696H104.916L101.729 143.165ZM91.5981 163.007L97.7681 144.688H103.468L109.638 163.007H104.75L103.608 158.983H97.6284L96.4858 163.007H91.5981ZM100.574 148.674L98.5933 155.631H102.643L100.663 148.674H100.574ZM111.403 163.007V144.688H115.351L122.676 155.263H122.765V144.688H127.412V163.007H123.501L116.138 152.318H116.049V163.007H111.403ZM138.736 163.337C133.086 163.337 129.684 159.846 129.684 153.816V153.803C129.684 147.862 133.099 144.358 138.622 144.358C143.116 144.358 146.353 146.999 146.835 150.553L146.861 150.706H142.252L142.214 150.579C141.732 149.093 140.424 148.217 138.634 148.217C135.994 148.217 134.432 150.198 134.432 153.752V153.765C134.432 157.396 136.159 159.478 138.837 159.478C140.945 159.478 142.392 158.335 142.544 156.495L142.557 156.266H138.888V152.965H147.051V155.263C147.051 160.278 143.954 163.337 138.736 163.337Z" fill="white"/>
<g filter="url(#filter1_d_3189_34)">
<mask id="path-5-outside-1_3189_34" maskUnits="userSpaceOnUse" x="25.4449" y="23" width="145" height="30" fill="black">
<rect fill="white" x="25.4449" y="23" width="145" height="30"/>
<path d="M27.2237 51V31.4281H36.3247C40.2039 31.4281 42.5503 33.2998 42.5503 36.3516V36.3787C42.5503 38.5895 40.8549 40.3528 38.6305 40.6376V40.7325C41.3025 40.8682 43.4048 42.8077 43.4048 45.3712V45.3983C43.4048 48.8027 40.7599 51 36.5689 51H27.2237ZM35.0091 34.941H32.2015V39.4711H34.6429C36.6367 39.4711 37.6946 38.6031 37.6946 37.1382V37.1111C37.6946 35.7548 36.6909 34.941 35.0091 34.941ZM35.0091 42.6043H32.2015V47.4871H35.1583C37.1928 47.4871 38.3457 46.6326 38.3457 45.0457V45.0186C38.3457 43.4588 37.1928 42.6043 35.0091 42.6043ZM52.8585 29.8005V29.7598C53.4553 29.2444 53.9842 28.729 53.9842 28.0779C53.9842 27.3726 53.3332 26.9793 52.1803 26.9793C51.8005 26.9793 51.3801 27.0335 51.041 27.0878V24.8091C51.5157 24.6599 52.2481 24.5107 52.9805 24.5107C55.1642 24.5107 56.6833 25.6501 56.6833 27.3455C56.6833 28.4034 56.073 29.1901 55.2185 29.8005H52.8585ZM44.4221 51L51.0139 31.4281H57.1038L63.6956 51H58.4737L57.253 46.7004H50.8647L49.644 51H44.4221ZM54.0114 35.687L51.8955 43.1197H56.2222L54.1063 35.687H54.0114ZM73.529 51.3526C67.5883 51.3526 63.8719 47.46 63.8719 41.2208V41.1937C63.8719 34.9681 67.6154 31.0754 73.529 31.0754C79.4834 31.0754 83.1997 34.9681 83.1997 41.1937V41.2208C83.1997 47.46 79.4969 51.3526 73.529 51.3526ZM73.529 47.2294C76.3774 47.2294 78.1406 44.8965 78.1406 41.2208V41.1937C78.1406 37.4909 76.3367 35.1987 73.529 35.1987C70.7486 35.1987 68.9446 37.4773 68.9446 41.1937V41.2208C68.9446 44.9372 70.735 47.2294 73.529 47.2294ZM91.0258 51V31.4281H96.0035V39.1185H103.802V31.4281H108.767V51H103.802V43.1197H96.0035V51H91.0258ZM119.292 29.8005L115.901 25.0262H119.916L122.371 29.8005H119.292ZM110.666 51L117.257 31.4281H123.347L129.939 51H124.717L123.496 46.7004H117.108L115.887 51H110.666ZM120.255 35.687L118.139 43.1197H122.466L120.35 35.687H120.255ZM131.824 51V31.4281H136.043L143.869 42.7263H143.964V31.4281H148.928V51H144.75L136.884 39.5796H136.789V51H131.824ZM151.898 51V31.4281H156.876V39.1185H164.675V31.4281H169.639V51H164.675V43.1197H156.876V51H151.898Z"/>
</mask>
<path d="M27.2237 51V31.4281H36.3247C40.2039 31.4281 42.5503 33.2998 42.5503 36.3516V36.3787C42.5503 38.5895 40.8549 40.3528 38.6305 40.6376V40.7325C41.3025 40.8682 43.4048 42.8077 43.4048 45.3712V45.3983C43.4048 48.8027 40.7599 51 36.5689 51H27.2237ZM35.0091 34.941H32.2015V39.4711H34.6429C36.6367 39.4711 37.6946 38.6031 37.6946 37.1382V37.1111C37.6946 35.7548 36.6909 34.941 35.0091 34.941ZM35.0091 42.6043H32.2015V47.4871H35.1583C37.1928 47.4871 38.3457 46.6326 38.3457 45.0457V45.0186C38.3457 43.4588 37.1928 42.6043 35.0091 42.6043ZM52.8585 29.8005V29.7598C53.4553 29.2444 53.9842 28.729 53.9842 28.0779C53.9842 27.3726 53.3332 26.9793 52.1803 26.9793C51.8005 26.9793 51.3801 27.0335 51.041 27.0878V24.8091C51.5157 24.6599 52.2481 24.5107 52.9805 24.5107C55.1642 24.5107 56.6833 25.6501 56.6833 27.3455C56.6833 28.4034 56.073 29.1901 55.2185 29.8005H52.8585ZM44.4221 51L51.0139 31.4281H57.1038L63.6956 51H58.4737L57.253 46.7004H50.8647L49.644 51H44.4221ZM54.0114 35.687L51.8955 43.1197H56.2222L54.1063 35.687H54.0114ZM73.529 51.3526C67.5883 51.3526 63.8719 47.46 63.8719 41.2208V41.1937C63.8719 34.9681 67.6154 31.0754 73.529 31.0754C79.4834 31.0754 83.1997 34.9681 83.1997 41.1937V41.2208C83.1997 47.46 79.4969 51.3526 73.529 51.3526ZM73.529 47.2294C76.3774 47.2294 78.1406 44.8965 78.1406 41.2208V41.1937C78.1406 37.4909 76.3367 35.1987 73.529 35.1987C70.7486 35.1987 68.9446 37.4773 68.9446 41.1937V41.2208C68.9446 44.9372 70.735 47.2294 73.529 47.2294ZM91.0258 51V31.4281H96.0035V39.1185H103.802V31.4281H108.767V51H103.802V43.1197H96.0035V51H91.0258ZM119.292 29.8005L115.901 25.0262H119.916L122.371 29.8005H119.292ZM110.666 51L117.257 31.4281H123.347L129.939 51H124.717L123.496 46.7004H117.108L115.887 51H110.666ZM120.255 35.687L118.139 43.1197H122.466L120.35 35.687H120.255ZM131.824 51V31.4281H136.043L143.869 42.7263H143.964V31.4281H148.928V51H144.75L136.884 39.5796H136.789V51H131.824ZM151.898 51V31.4281H156.876V39.1185H164.675V31.4281H169.639V51H164.675V43.1197H156.876V51H151.898Z" fill="white"/>
<path d="M27.2237 51H26.4237C26.4237 51.4418 26.7819 51.8 27.2237 51.8V51ZM27.2237 31.4281V30.6281C26.7819 30.6281 26.4237 30.9862 26.4237 31.4281H27.2237ZM38.6305 40.6376L38.5289 39.8441C38.1296 39.8952 37.8305 40.235 37.8305 40.6376H38.6305ZM38.6305 40.7325H37.8305C37.8305 41.1586 38.1644 41.5099 38.5899 41.5315L38.6305 40.7325ZM32.2015 34.941V34.141C31.7596 34.141 31.4015 34.4991 31.4015 34.941H32.2015ZM32.2015 39.4711H31.4015C31.4015 39.913 31.7596 40.2711 32.2015 40.2711V39.4711ZM32.2015 42.6043V41.8043C31.7596 41.8043 31.4015 42.1624 31.4015 42.6043H32.2015ZM32.2015 47.4871H31.4015C31.4015 47.9289 31.7596 48.2871 32.2015 48.2871V47.4871ZM28.0237 51V31.4281H26.4237V51H28.0237ZM27.2237 32.2281H36.3247V30.6281H27.2237V32.2281ZM36.3247 32.2281C38.1463 32.2281 39.5073 32.6684 40.3952 33.3723C41.2609 34.0586 41.7503 35.051 41.7503 36.3516H43.3503C43.3503 34.6004 42.6665 33.1311 41.3892 32.1185C40.1341 31.1236 38.3823 30.6281 36.3247 30.6281V32.2281ZM41.7503 36.3516V36.3787H43.3503V36.3516H41.7503ZM41.7503 36.3787C41.7503 38.1468 40.3951 39.6051 38.5289 39.8441L38.7321 41.4311C41.3146 41.1004 43.3503 39.0322 43.3503 36.3787H41.7503ZM37.8305 40.6376V40.7325H39.4305V40.6376H37.8305ZM38.5899 41.5315C40.908 41.6492 42.6048 43.302 42.6048 45.3712H44.2048C44.2048 42.3135 41.697 40.0872 38.6711 39.9336L38.5899 41.5315ZM42.6048 45.3712V45.3983H44.2048V45.3712H42.6048ZM42.6048 45.3983C42.6048 46.8756 42.0399 48.0439 41.0503 48.858C40.0445 49.6854 38.5319 50.2 36.5689 50.2V51.8C38.7969 51.8 40.7023 51.216 42.0667 50.0936C43.4473 48.958 44.2048 47.3255 44.2048 45.3983H42.6048ZM36.5689 50.2H27.2237V51.8H36.5689V50.2ZM35.0091 34.141H32.2015V35.741H35.0091V34.141ZM31.4015 34.941V39.4711H33.0015V34.941H31.4015ZM32.2015 40.2711H34.6429V38.6711H32.2015V40.2711ZM34.6429 40.2711C35.7407 40.2711 36.7031 40.0342 37.408 39.4851C38.1425 38.9131 38.4946 38.0822 38.4946 37.1382H36.8946C36.8946 37.6591 36.7178 37.9947 36.4248 38.2229C36.1023 38.474 35.5389 38.6711 34.6429 38.6711V40.2711ZM38.4946 37.1382V37.1111H36.8946V37.1382H38.4946ZM38.4946 37.1111C38.4946 36.2178 38.1542 35.4361 37.4856 34.8954C36.8388 34.3722 35.9683 34.141 35.0091 34.141V35.741C35.7317 35.741 36.204 35.9166 36.4795 36.1394C36.7332 36.3447 36.8946 36.6481 36.8946 37.1111H38.4946ZM35.0091 41.8043H32.2015V43.4043H35.0091V41.8043ZM31.4015 42.6043V47.4871H33.0015V42.6043H31.4015ZM32.2015 48.2871H35.1583V46.6871H32.2015V48.2871ZM35.1583 48.2871C36.2706 48.2871 37.2647 48.056 37.9987 47.4986C38.7667 46.9154 39.1457 46.0543 39.1457 45.0457H37.5457C37.5457 45.6239 37.3482 45.9836 37.0311 46.2244C36.6801 46.4909 36.0805 46.6871 35.1583 46.6871V48.2871ZM39.1457 45.0457V45.0186H37.5457V45.0457H39.1457ZM39.1457 45.0186C39.1457 44.0165 38.7609 43.1577 37.9671 42.5798C37.2139 42.0313 36.1858 41.8043 35.0091 41.8043V43.4043C36.0161 43.4043 36.6563 43.6045 37.0254 43.8732C37.354 44.1125 37.5457 44.4608 37.5457 45.0186H39.1457ZM52.8585 29.8005H52.0585C52.0585 30.2423 52.4166 30.6005 52.8585 30.6005V29.8005ZM52.8585 29.7598L52.3356 29.1543C52.1596 29.3063 52.0585 29.5273 52.0585 29.7598H52.8585ZM51.041 27.0878H50.241C50.241 27.322 50.3437 27.5445 50.5219 27.6965C50.7001 27.8485 50.9361 27.9147 51.1674 27.8777L51.041 27.0878ZM51.041 24.8091L50.8011 24.0459C50.4678 24.1507 50.241 24.4597 50.241 24.8091H51.041ZM55.2185 29.8005V30.6005C55.3852 30.6005 55.5478 30.5484 55.6835 30.4514L55.2185 29.8005ZM44.4221 51L43.6639 50.7447C43.5817 50.9888 43.622 51.2576 43.7723 51.4668C43.9226 51.676 44.1645 51.8 44.4221 51.8V51ZM51.0139 31.4281V30.6281C50.6704 30.6281 50.3653 30.8473 50.2557 31.1727L51.0139 31.4281ZM57.1038 31.4281L57.862 31.1727C57.7523 30.8473 57.4472 30.6281 57.1038 30.6281V31.4281ZM63.6956 51V51.8C63.9532 51.8 64.195 51.676 64.3453 51.4668C64.4956 51.2576 64.536 50.9888 64.4538 50.7447L63.6956 51ZM58.4737 51L57.7041 51.2185C57.8018 51.5626 58.116 51.8 58.4737 51.8V51ZM57.253 46.7004L58.0226 46.4819C57.9249 46.1378 57.6107 45.9004 57.253 45.9004V46.7004ZM50.8647 46.7004V45.9004C50.507 45.9004 50.1928 46.1378 50.0951 46.4819L50.8647 46.7004ZM49.644 51V51.8C50.0016 51.8 50.3158 51.5626 50.4135 51.2185L49.644 51ZM54.0114 35.687V34.887C53.6539 34.887 53.3398 35.1241 53.2419 35.4679L54.0114 35.687ZM51.8955 43.1197L51.126 42.9006C51.0573 43.142 51.1058 43.4015 51.257 43.6017C51.4082 43.802 51.6446 43.9197 51.8955 43.9197V43.1197ZM56.2222 43.1197V43.9197C56.4731 43.9197 56.7094 43.802 56.8606 43.6017C57.0118 43.4015 57.0603 43.142 56.9916 42.9006L56.2222 43.1197ZM54.1063 35.687L54.8757 35.4679C54.7779 35.1241 54.4638 34.887 54.1063 34.887V35.687ZM53.6585 29.8005V29.7598H52.0585V29.8005H53.6585ZM53.3814 30.3652C53.6808 30.1066 54.021 29.8005 54.2842 29.451C54.5542 29.0924 54.7842 28.635 54.7842 28.0779H53.1842C53.1842 28.1718 53.1497 28.2977 53.0061 28.4884C52.8556 28.6882 52.6329 28.8975 52.3356 29.1543L53.3814 30.3652ZM54.7842 28.0779C54.7842 27.429 54.4609 26.9031 53.9301 26.5805C53.4461 26.2863 52.8276 26.1793 52.1803 26.1793V27.7793C52.6859 27.7793 52.9694 27.8689 53.0991 27.9478C53.1558 27.9822 53.1704 28.0065 53.1728 28.0106C53.1742 28.0131 53.1842 28.0289 53.1842 28.0779H54.7842ZM52.1803 26.1793C51.7359 26.1793 51.2654 26.2417 50.9146 26.2978L51.1674 27.8777C51.4947 27.8254 51.8651 27.7793 52.1803 27.7793V26.1793ZM51.841 27.0878V24.8091H50.241V27.0878H51.841ZM51.2808 25.5723C51.6927 25.4429 52.3436 25.3107 52.9805 25.3107V23.7107C52.1526 23.7107 51.3387 23.877 50.8011 24.0459L51.2808 25.5723ZM52.9805 25.3107C53.9413 25.3107 54.6842 25.562 55.1663 25.9289C55.6323 26.2836 55.8833 26.7624 55.8833 27.3455H57.4833C57.4833 26.2332 56.9748 25.2946 56.1353 24.6557C55.312 24.0292 54.2035 23.7107 52.9805 23.7107V25.3107ZM55.8833 27.3455C55.8833 28.0426 55.4979 28.6177 54.7535 29.1495L55.6835 30.4514C56.648 29.7625 57.4833 28.7643 57.4833 27.3455H55.8833ZM55.2185 29.0005H52.8585V30.6005H55.2185V29.0005ZM45.1802 51.2553L51.772 31.6834L50.2557 31.1727L43.6639 50.7447L45.1802 51.2553ZM51.0139 32.2281H57.1038V30.6281H51.0139V32.2281ZM56.3456 31.6834L62.9374 51.2553L64.4538 50.7447L57.862 31.1727L56.3456 31.6834ZM63.6956 50.2H58.4737V51.8H63.6956V50.2ZM59.2433 50.7815L58.0226 46.4819L56.4834 46.9189L57.7041 51.2185L59.2433 50.7815ZM57.253 45.9004H50.8647V47.5004H57.253V45.9004ZM50.0951 46.4819L48.8744 50.7815L50.4135 51.2185L51.6342 46.9189L50.0951 46.4819ZM49.644 50.2H44.4221V51.8H49.644V50.2ZM53.2419 35.4679L51.126 42.9006L52.6649 43.3387L54.7808 35.906L53.2419 35.4679ZM51.8955 43.9197H56.2222V42.3197H51.8955V43.9197ZM56.9916 42.9006L54.8757 35.4679L53.3369 35.906L55.4528 43.3387L56.9916 42.9006ZM54.1063 34.887H54.0114V36.487H54.1063V34.887ZM73.529 50.5526C70.7387 50.5526 68.5476 49.6431 67.0517 48.0743C65.5517 46.5013 64.6719 44.1825 64.6719 41.2208H63.0719C63.0719 44.4983 64.0504 47.2454 65.8937 49.1785C67.7412 51.1159 70.3786 52.1526 73.529 52.1526V50.5526ZM64.6719 41.2208V41.1937H63.0719V41.2208H64.6719ZM64.6719 41.1937C64.6719 38.2408 65.5573 35.9251 67.061 34.3529C68.561 32.7846 70.753 31.8754 73.529 31.8754V30.2754C70.3914 30.2754 67.7549 31.3126 65.9047 33.247C64.0583 35.1775 63.0719 37.921 63.0719 41.1937H64.6719ZM73.529 31.8754C76.3267 31.8754 78.5214 32.7854 80.0188 34.3526C81.5203 35.924 82.3997 38.2393 82.3997 41.1937H83.9997C83.9997 37.9225 83.021 35.1786 81.1757 33.2473C79.3264 31.3118 76.6857 30.2754 73.529 30.2754V31.8754ZM82.3997 41.1937V41.2208H83.9997V41.1937H82.3997ZM82.3997 41.2208C82.3997 44.1832 81.5229 46.5018 80.0234 48.0743C78.528 49.6425 76.3339 50.5526 73.529 50.5526V52.1526C76.6921 52.1526 79.3333 51.1165 81.1813 49.1785C83.0251 47.2449 83.9997 44.4975 83.9997 41.2208H82.3997ZM73.529 48.0294C75.1963 48.0294 76.5867 47.3348 77.5386 46.0892C78.4728 44.8668 78.9406 43.1758 78.9406 41.2208H77.3406C77.3406 42.9415 76.9268 44.2547 76.2673 45.1177C75.6255 45.9575 74.7101 46.4294 73.529 46.4294V48.0294ZM78.9406 41.2208V41.1937H77.3406V41.2208H78.9406ZM78.9406 41.1937C78.9406 39.2223 78.4612 37.5334 77.5203 36.3179C76.5628 35.0811 75.1738 34.3987 73.529 34.3987V35.9987C74.6919 35.9987 75.6087 36.4623 76.2551 37.2973C76.918 38.1536 77.3406 39.4623 77.3406 41.1937H78.9406ZM73.529 34.3987C71.8969 34.3987 70.5146 35.0785 69.5609 36.3136C68.6237 37.5274 68.1446 39.216 68.1446 41.1937H69.7446C69.7446 39.455 70.1675 38.1461 70.8274 37.2915C71.4708 36.4581 72.3807 35.9987 73.529 35.9987V34.3987ZM68.1446 41.1937V41.2208H69.7446V41.1937H68.1446ZM68.1446 41.2208C68.1446 43.1971 68.6197 44.8887 69.5546 46.106C70.5064 47.3454 71.8893 48.0294 73.529 48.0294V46.4294C72.3747 46.4294 71.4654 45.9673 70.8236 45.1315C70.1647 44.2736 69.7446 42.9609 69.7446 41.2208H68.1446ZM91.0258 51H90.2258C90.2258 51.4418 90.584 51.8 91.0258 51.8V51ZM91.0258 31.4281V30.6281C90.584 30.6281 90.2258 30.9862 90.2258 31.4281H91.0258ZM96.0035 31.4281H96.8035C96.8035 30.9862 96.4454 30.6281 96.0035 30.6281V31.4281ZM96.0035 39.1185H95.2035C95.2035 39.5603 95.5617 39.9185 96.0035 39.9185V39.1185ZM103.802 39.1185V39.9185C104.244 39.9185 104.602 39.5603 104.602 39.1185H103.802ZM103.802 31.4281V30.6281C103.361 30.6281 103.002 30.9862 103.002 31.4281H103.802ZM108.767 31.4281H109.567C109.567 30.9862 109.208 30.6281 108.767 30.6281V31.4281ZM108.767 51V51.8C109.208 51.8 109.567 51.4418 109.567 51H108.767ZM103.802 51H103.002C103.002 51.4418 103.361 51.8 103.802 51.8V51ZM103.802 43.1197H104.602C104.602 42.6779 104.244 42.3197 103.802 42.3197V43.1197ZM96.0035 43.1197V42.3197C95.5617 42.3197 95.2035 42.6779 95.2035 43.1197H96.0035ZM96.0035 51V51.8C96.4454 51.8 96.8035 51.4418 96.8035 51H96.0035ZM91.8258 51V31.4281H90.2258V51H91.8258ZM91.0258 32.2281H96.0035V30.6281H91.0258V32.2281ZM95.2035 31.4281V39.1185H96.8035V31.4281H95.2035ZM96.0035 39.9185H103.802V38.3185H96.0035V39.9185ZM104.602 39.1185V31.4281H103.002V39.1185H104.602ZM103.802 32.2281H108.767V30.6281H103.802V32.2281ZM107.967 31.4281V51H109.567V31.4281H107.967ZM108.767 50.2H103.802V51.8H108.767V50.2ZM104.602 51V43.1197H103.002V51H104.602ZM103.802 42.3197H96.0035V43.9197H103.802V42.3197ZM95.2035 43.1197V51H96.8035V43.1197H95.2035ZM96.0035 50.2H91.0258V51.8H96.0035V50.2ZM119.292 29.8005L118.64 30.2637C118.79 30.475 119.033 30.6005 119.292 30.6005V29.8005ZM115.901 25.0262V24.2262C115.602 24.2262 115.327 24.3932 115.19 24.6591C115.053 24.9251 115.075 25.2454 115.249 25.4894L115.901 25.0262ZM119.916 25.0262L120.627 24.6603C120.49 24.3937 120.216 24.2262 119.916 24.2262V25.0262ZM122.371 29.8005V30.6005C122.65 30.6005 122.908 30.4552 123.054 30.2172C123.199 29.9791 123.21 29.6826 123.082 29.4346L122.371 29.8005ZM110.666 51L109.907 50.7447C109.825 50.9888 109.866 51.2576 110.016 51.4668C110.166 51.676 110.408 51.8 110.666 51.8V51ZM117.257 31.4281V30.6281C116.914 30.6281 116.609 30.8473 116.499 31.1727L117.257 31.4281ZM123.347 31.4281L124.105 31.1727C123.996 30.8473 123.691 30.6281 123.347 30.6281V31.4281ZM129.939 51V51.8C130.197 51.8 130.439 51.676 130.589 51.4668C130.739 51.2576 130.779 50.9888 130.697 50.7447L129.939 51ZM124.717 51L123.948 51.2185C124.045 51.5626 124.36 51.8 124.717 51.8V51ZM123.496 46.7004L124.266 46.4819C124.168 46.1378 123.854 45.9004 123.496 45.9004V46.7004ZM117.108 46.7004V45.9004C116.75 45.9004 116.436 46.1378 116.339 46.4819L117.108 46.7004ZM115.887 51V51.8C116.245 51.8 116.559 51.5626 116.657 51.2185L115.887 51ZM120.255 35.687V34.887C119.897 34.887 119.583 35.1241 119.485 35.4679L120.255 35.687ZM118.139 43.1197L117.37 42.9006C117.301 43.142 117.349 43.4015 117.501 43.6017C117.652 43.802 117.888 43.9197 118.139 43.9197V43.1197ZM122.466 43.1197V43.9197C122.717 43.9197 122.953 43.802 123.104 43.6017C123.255 43.4015 123.304 43.142 123.235 42.9006L122.466 43.1197ZM120.35 35.687L121.119 35.4679C121.021 35.1241 120.707 34.887 120.35 34.887V35.687ZM119.944 29.3372L116.553 24.5629L115.249 25.4894L118.64 30.2637L119.944 29.3372ZM115.901 25.8262H119.916V24.2262H115.901V25.8262ZM119.204 25.392L121.659 30.1663L123.082 29.4346L120.627 24.6603L119.204 25.392ZM122.371 29.0005H119.292V30.6005H122.371V29.0005ZM111.424 51.2553L118.015 31.6834L116.499 31.1727L109.907 50.7447L111.424 51.2553ZM117.257 32.2281H123.347V30.6281H117.257V32.2281ZM122.589 31.6834L129.181 51.2553L130.697 50.7447L124.105 31.1727L122.589 31.6834ZM129.939 50.2H124.717V51.8H129.939V50.2ZM125.487 50.7815L124.266 46.4819L122.727 46.9189L123.948 51.2185L125.487 50.7815ZM123.496 45.9004H117.108V47.5004H123.496V45.9004ZM116.339 46.4819L115.118 50.7815L116.657 51.2185L117.878 46.9189L116.339 46.4819ZM115.887 50.2H110.666V51.8H115.887V50.2ZM119.485 35.4679L117.37 42.9006L118.908 43.3387L121.024 35.906L119.485 35.4679ZM118.139 43.9197H122.466V42.3197H118.139V43.9197ZM123.235 42.9006L121.119 35.4679L119.58 35.906L121.696 43.3387L123.235 42.9006ZM120.35 34.887H120.255V36.487H120.35V34.887ZM131.824 51H131.024C131.024 51.4418 131.383 51.8 131.824 51.8V51ZM131.824 31.4281V30.6281C131.383 30.6281 131.024 30.9862 131.024 31.4281H131.824ZM136.043 31.4281L136.7 30.9725C136.551 30.7568 136.305 30.6281 136.043 30.6281V31.4281ZM143.869 42.7263L143.211 43.1819C143.36 43.3976 143.606 43.5263 143.869 43.5263V42.7263ZM143.964 42.7263V43.5263C144.405 43.5263 144.764 43.1682 144.764 42.7263H143.964ZM143.964 31.4281V30.6281C143.522 30.6281 143.164 30.9862 143.164 31.4281H143.964ZM148.928 31.4281H149.728C149.728 30.9862 149.37 30.6281 148.928 30.6281V31.4281ZM148.928 51V51.8C149.37 51.8 149.728 51.4418 149.728 51H148.928ZM144.75 51L144.091 51.4538C144.241 51.6706 144.487 51.8 144.75 51.8V51ZM136.884 39.5796L137.542 39.1258C137.393 38.9091 137.147 38.7796 136.884 38.7796V39.5796ZM136.789 39.5796V38.7796C136.347 38.7796 135.989 39.1378 135.989 39.5796H136.789ZM136.789 51V51.8C137.23 51.8 137.589 51.4418 137.589 51H136.789ZM132.624 51V31.4281H131.024V51H132.624ZM131.824 32.2281H136.043V30.6281H131.824V32.2281ZM135.385 31.8836L143.211 43.1819L144.526 42.2708L136.7 30.9725L135.385 31.8836ZM143.869 43.5263H143.964V41.9263H143.869V43.5263ZM144.764 42.7263V31.4281H143.164V42.7263H144.764ZM143.964 32.2281H148.928V30.6281H143.964V32.2281ZM148.128 31.4281V51H149.728V31.4281H148.128ZM148.928 50.2H144.75V51.8H148.928V50.2ZM145.409 50.5462L137.542 39.1258L136.225 40.0335L144.091 51.4538L145.409 50.5462ZM136.884 38.7796H136.789V40.3796H136.884V38.7796ZM135.989 39.5796V51H137.589V39.5796H135.989ZM136.789 50.2H131.824V51.8H136.789V50.2ZM151.898 51H151.098C151.098 51.4418 151.456 51.8 151.898 51.8V51ZM151.898 31.4281V30.6281C151.456 30.6281 151.098 30.9862 151.098 31.4281H151.898ZM156.876 31.4281H157.676C157.676 30.9862 157.318 30.6281 156.876 30.6281V31.4281ZM156.876 39.1185H156.076C156.076 39.5603 156.434 39.9185 156.876 39.9185V39.1185ZM164.675 39.1185V39.9185C165.117 39.9185 165.475 39.5603 165.475 39.1185H164.675ZM164.675 31.4281V30.6281C164.233 30.6281 163.875 30.9862 163.875 31.4281H164.675ZM169.639 31.4281H170.439C170.439 30.9862 170.081 30.6281 169.639 30.6281V31.4281ZM169.639 51V51.8C170.081 51.8 170.439 51.4418 170.439 51H169.639ZM164.675 51H163.875C163.875 51.4418 164.233 51.8 164.675 51.8V51ZM164.675 43.1197H165.475C165.475 42.6779 165.117 42.3197 164.675 42.3197V43.1197ZM156.876 43.1197V42.3197C156.434 42.3197 156.076 42.6779 156.076 43.1197H156.876ZM156.876 51V51.8C157.318 51.8 157.676 51.4418 157.676 51H156.876ZM152.698 51V31.4281H151.098V51H152.698ZM151.898 32.2281H156.876V30.6281H151.898V32.2281ZM156.076 31.4281V39.1185H157.676V31.4281H156.076ZM156.876 39.9185H164.675V38.3185H156.876V39.9185ZM165.475 39.1185V31.4281H163.875V39.1185H165.475ZM164.675 32.2281H169.639V30.6281H164.675V32.2281ZM168.839 31.4281V51H170.439V31.4281H168.839ZM169.639 50.2H164.675V51.8H169.639V50.2ZM165.475 51V43.1197H163.875V51H165.475ZM164.675 42.3197H156.876V43.9197H164.675V42.3197ZM156.076 43.1197V51H157.676V43.1197H156.076ZM156.876 50.2H151.898V51.8H156.876V50.2Z" fill="#83200E" mask="url(#path-5-outside-1_3189_34)"/>
</g>
</g>
<defs>
<filter id="filter0_d_3189_34" x="47.278" y="63.4229" width="110.09" height="83.5321" filterUnits="userSpaceOnUse" color-interpolation-filters="sRGB">
<feFlood flood-opacity="0" result="BackgroundImageFix"/>
<feColorMatrix in="SourceAlpha" type="matrix" values="0 0 0 0 0 0 0 0 0 0 0 0 0 0 0 0 0 0 127 0" result="hardAlpha"/>
<feOffset dx="4" dy="4"/>
<feGaussianBlur stdDeviation="6"/>
<feComposite in2="hardAlpha" operator="out"/>
<feColorMatrix type="matrix" values="0 0 0 0 0 0 0 0 0 0 0 0 0 0 0 0 0 0 0.6 0"/>
<feBlend mode="normal" in2="BackgroundImageFix" result="effect1_dropShadow_3189_34"/>
<feBlend mode="normal" in="SourceGraphic" in2="effect1_dropShadow_3189_34" result="shape"/>
</filter>
<filter id="filter1_d_3189_34" x="19.2237" y="16.5107" width="166.415" height="50.8419" filterUnits="userSpaceOnUse" color-interpolation-filters="sRGB">
<feFlood flood-opacity="0" result="BackgroundImageFix"/>
<feColorMatrix in="SourceAlpha" type="matrix" values="0 0 0 0 0 0 0 0 0 0 0 0 0 0 0 0 0 0 127 0" result="hardAlpha"/>
<feOffset dx="4" dy="4"/>
<feGaussianBlur stdDeviation="6"/>
<feComposite in2="hardAlpha" operator="out"/>
<feColorMatrix type="matrix" values="0 0 0 0 0 0 0 0 0 0 0 0 0 0 0 0 0 0 0.6 0"/>
<feBlend mode="normal" in2="BackgroundImageFix" result="effect1_dropShadow_3189_34"/>
<feBlend mode="normal" in="SourceGraphic" in2="effect1_dropShadow_3189_34" result="shape"/>
</filter>
<radialGradient id="paint0_radial_3189_34" cx="0" cy="0" r="1" gradientUnits="userSpaceOnUse" gradientTransform="translate(97.5573 -1.65601) rotate(90) scale(203.312 176.797)">
<stop stop-color="#FDFDF0"/>
<stop offset="0.5" stop-color="#E2C59F"/>
<stop offset="0.918359" stop-color="#DDA071"/>
<stop offset="1" stop-color="#F8D197"/>
</radialGradient>
<radialGradient id="paint1_radial_3189_34" cx="0" cy="0" r="1" gradientUnits="userSpaceOnUse" gradientTransform="translate(42.1322 40.5446) rotate(59.7176) scale(159.873)">
<stop stop-color="#F92821"/>
<stop offset="1" stop-color="#D90B0F"/>
</radialGradient>
<linearGradient id="paint2_linear_3189_34" x1="24.2721" y1="62.5761" x2="194.326" y2="105.02" gradientUnits="userSpaceOnUse">
<stop stop-color="#F3EAD6"/>
<stop offset="0.149674" stop-color="#FBE0B3"/>
<stop offset="0.672372" stop-color="#FBE0B3"/>
<stop offset="1" stop-color="#FDECD5"/>
</linearGradient>
<clipPath id="clip0_3189_34">
<rect width="200" height="200" fill="white" transform="translate(0.000488281)"/>
</clipPath>
</defs>
</svg>
