<svg width="200" height="200" viewBox="0 0 200 200" fill="none" xmlns="http://www.w3.org/2000/svg">
<g clip-path="url(#clip0_3189_82)">
<path d="M93.6954 1.60013C97.1854 -0.414852 101.485 -0.414851 104.975 1.60013L181.732 45.9156C185.222 47.9306 187.372 51.6544 187.372 55.6844V144.315C187.372 148.345 185.222 152.069 181.732 154.084L104.975 198.4C101.485 200.415 97.1854 200.415 93.6954 198.4L16.9388 154.084C13.4487 152.069 11.2988 148.345 11.2988 144.315V55.6844C11.2988 51.6544 13.4487 47.9306 16.9388 45.9156L93.6954 1.60013Z" fill="url(#paint0_radial_3189_82)"/>
<path d="M95.5701 6.98279C97.8999 5.63768 100.77 5.63769 103.1 6.98279L178.008 50.231C180.338 51.5761 181.773 54.062 181.773 56.7522V143.249C181.773 145.939 180.338 148.425 178.008 149.77L103.1 193.018C100.77 194.363 97.8999 194.363 95.5701 193.018L20.662 149.77C18.3322 148.425 16.897 145.939 16.897 143.249V56.7522C16.897 54.062 18.3322 51.5761 20.662 50.231L95.5701 6.98279Z" fill="url(#paint1_radial_3189_82)" stroke="url(#paint2_linear_3189_82)" stroke-width="0.94"/>
<g filter="url(#filter0_d_3189_82)">
<path d="M36.4022 133.333L58.2182 96.8294H35.2502V82.9334H76.5782V95.6054L54.6902 133.333H36.4022ZM80.2772 133.333L102.093 96.8294H79.1252V82.9334H120.453V95.6054L98.5652 133.333H80.2772ZM124.152 133.333L145.968 96.8294H123V82.9334H164.328V95.6054L142.44 133.333H124.152Z" fill="white"/>
</g>
<path d="M66.1819 163.007V144.688H70.1301L77.4553 155.263H77.5442V144.688H82.1907V163.007H78.2805L70.9172 152.318H70.8284V163.007H66.1819ZM93.5149 163.337C87.8655 163.337 84.4631 159.846 84.4631 153.816V153.803C84.4631 147.862 87.8782 144.358 93.4006 144.358C97.8948 144.358 101.132 146.999 101.615 150.553L101.64 150.706H97.0315L96.9934 150.579C96.511 149.093 95.2034 148.217 93.4133 148.217C90.7727 148.217 89.2112 150.198 89.2112 153.752V153.765C89.2112 157.396 90.9377 159.478 93.6165 159.478C95.7239 159.478 97.1711 158.335 97.3235 156.495L97.3362 156.266H93.6672V152.965H101.83V155.263C101.83 160.278 98.7327 163.337 93.5149 163.337ZM110.412 143.165L107.239 138.696H110.996L113.294 143.165H110.412ZM102.338 163.007L108.508 144.688H114.208L120.378 163.007H115.49L114.348 158.983H108.368L107.226 163.007H102.338ZM111.314 148.674L109.333 155.631H113.383L111.403 148.674H111.314ZM124.745 163.007V156.71L118.436 144.688H123.387L127.031 152.305H127.119L130.763 144.688H135.714L129.405 156.71V163.007H124.745Z" fill="white"/>
<g filter="url(#filter1_d_3189_82)">
<mask id="path-5-outside-1_3189_82" maskUnits="userSpaceOnUse" x="25.446" y="23" width="145" height="30" fill="black">
<rect fill="white" x="25.446" y="23" width="145" height="30"/>
<path d="M27.2248 51V31.4281H36.3258C40.2049 31.4281 42.5514 33.2998 42.5514 36.3516V36.3787C42.5514 38.5895 40.856 40.3528 38.6316 40.6376V40.7325C41.3036 40.8682 43.4059 42.8077 43.4059 45.3712V45.3983C43.4059 48.8027 40.761 51 36.57 51H27.2248ZM35.0102 34.941H32.2026V39.4711H34.644C36.6378 39.4711 37.6957 38.6031 37.6957 37.1382V37.1111C37.6957 35.7548 36.692 34.941 35.0102 34.941ZM35.0102 42.6043H32.2026V47.4871H35.1594C37.1939 47.4871 38.3468 46.6326 38.3468 45.0457V45.0186C38.3468 43.4588 37.1939 42.6043 35.0102 42.6043ZM52.8596 29.8005V29.7598C53.4564 29.2444 53.9853 28.729 53.9853 28.0779C53.9853 27.3726 53.3343 26.9793 52.1814 26.9793C51.8016 26.9793 51.3812 27.0335 51.0421 27.0878V24.8091C51.5168 24.6599 52.2492 24.5107 52.9816 24.5107C55.1653 24.5107 56.6844 25.6501 56.6844 27.3455C56.6844 28.4034 56.0741 29.1901 55.2196 29.8005H52.8596ZM44.4232 51L51.015 31.4281H57.1049L63.6967 51H58.4748L57.2541 46.7004H50.8658L49.6451 51H44.4232ZM54.0125 35.687L51.8966 43.1197H56.2233L54.1074 35.687H54.0125ZM73.5301 51.3526C67.5894 51.3526 63.873 47.46 63.873 41.2208V41.1937C63.873 34.9681 67.6165 31.0754 73.5301 31.0754C79.4845 31.0754 83.2008 34.9681 83.2008 41.1937V41.2208C83.2008 47.46 79.498 51.3526 73.5301 51.3526ZM73.5301 47.2294C76.3785 47.2294 78.1417 44.8965 78.1417 41.2208V41.1937C78.1417 37.4909 76.3378 35.1987 73.5301 35.1987C70.7497 35.1987 68.9457 37.4773 68.9457 41.1937V41.2208C68.9457 44.9372 70.7361 47.2294 73.5301 47.2294ZM91.0269 51V31.4281H96.0046V39.1185H103.804V31.4281H108.768V51H103.804V43.1197H96.0046V51H91.0269ZM119.293 29.8005L115.902 25.0262H119.917L122.372 29.8005H119.293ZM110.667 51L117.258 31.4281H123.348L129.94 51H124.718L123.498 46.7004H117.109L115.889 51H110.667ZM120.256 35.687L118.14 43.1197H122.467L120.351 35.687H120.256ZM131.825 51V31.4281H136.044L143.87 42.7263H143.965V31.4281H148.929V51H144.751L136.885 39.5796H136.79V51H131.825ZM151.899 51V31.4281H156.877V39.1185H164.676V31.4281H169.64V51H164.676V43.1197H156.877V51H151.899Z"/>
</mask>
<path d="M27.2248 51V31.4281H36.3258C40.2049 31.4281 42.5514 33.2998 42.5514 36.3516V36.3787C42.5514 38.5895 40.856 40.3528 38.6316 40.6376V40.7325C41.3036 40.8682 43.4059 42.8077 43.4059 45.3712V45.3983C43.4059 48.8027 40.761 51 36.57 51H27.2248ZM35.0102 34.941H32.2026V39.4711H34.644C36.6378 39.4711 37.6957 38.6031 37.6957 37.1382V37.1111C37.6957 35.7548 36.692 34.941 35.0102 34.941ZM35.0102 42.6043H32.2026V47.4871H35.1594C37.1939 47.4871 38.3468 46.6326 38.3468 45.0457V45.0186C38.3468 43.4588 37.1939 42.6043 35.0102 42.6043ZM52.8596 29.8005V29.7598C53.4564 29.2444 53.9853 28.729 53.9853 28.0779C53.9853 27.3726 53.3343 26.9793 52.1814 26.9793C51.8016 26.9793 51.3812 27.0335 51.0421 27.0878V24.8091C51.5168 24.6599 52.2492 24.5107 52.9816 24.5107C55.1653 24.5107 56.6844 25.6501 56.6844 27.3455C56.6844 28.4034 56.0741 29.1901 55.2196 29.8005H52.8596ZM44.4232 51L51.015 31.4281H57.1049L63.6967 51H58.4748L57.2541 46.7004H50.8658L49.6451 51H44.4232ZM54.0125 35.687L51.8966 43.1197H56.2233L54.1074 35.687H54.0125ZM73.5301 51.3526C67.5894 51.3526 63.873 47.46 63.873 41.2208V41.1937C63.873 34.9681 67.6165 31.0754 73.5301 31.0754C79.4845 31.0754 83.2008 34.9681 83.2008 41.1937V41.2208C83.2008 47.46 79.498 51.3526 73.5301 51.3526ZM73.5301 47.2294C76.3785 47.2294 78.1417 44.8965 78.1417 41.2208V41.1937C78.1417 37.4909 76.3378 35.1987 73.5301 35.1987C70.7497 35.1987 68.9457 37.4773 68.9457 41.1937V41.2208C68.9457 44.9372 70.7361 47.2294 73.5301 47.2294ZM91.0269 51V31.4281H96.0046V39.1185H103.804V31.4281H108.768V51H103.804V43.1197H96.0046V51H91.0269ZM119.293 29.8005L115.902 25.0262H119.917L122.372 29.8005H119.293ZM110.667 51L117.258 31.4281H123.348L129.94 51H124.718L123.498 46.7004H117.109L115.889 51H110.667ZM120.256 35.687L118.14 43.1197H122.467L120.351 35.687H120.256ZM131.825 51V31.4281H136.044L143.87 42.7263H143.965V31.4281H148.929V51H144.751L136.885 39.5796H136.79V51H131.825ZM151.899 51V31.4281H156.877V39.1185H164.676V31.4281H169.64V51H164.676V43.1197H156.877V51H151.899Z" fill="white"/>
<path d="M27.2248 51H26.4248C26.4248 51.4418 26.783 51.8 27.2248 51.8V51ZM27.2248 31.4281V30.6281C26.783 30.6281 26.4248 30.9862 26.4248 31.4281H27.2248ZM38.6316 40.6376L38.53 39.8441C38.1307 39.8952 37.8316 40.235 37.8316 40.6376H38.6316ZM38.6316 40.7325H37.8316C37.8316 41.1586 38.1655 41.5099 38.591 41.5315L38.6316 40.7325ZM32.2026 34.941V34.141C31.7607 34.141 31.4026 34.4991 31.4026 34.941H32.2026ZM32.2026 39.4711H31.4026C31.4026 39.913 31.7607 40.2711 32.2026 40.2711V39.4711ZM32.2026 42.6043V41.8043C31.7607 41.8043 31.4026 42.1624 31.4026 42.6043H32.2026ZM32.2026 47.4871H31.4026C31.4026 47.9289 31.7607 48.2871 32.2026 48.2871V47.4871ZM28.0248 51V31.4281H26.4248V51H28.0248ZM27.2248 32.2281H36.3258V30.6281H27.2248V32.2281ZM36.3258 32.2281C38.1474 32.2281 39.5084 32.6684 40.3963 33.3723C41.262 34.0586 41.7514 35.051 41.7514 36.3516H43.3514C43.3514 34.6004 42.6676 33.1311 41.3903 32.1185C40.1352 31.1236 38.3834 30.6281 36.3258 30.6281V32.2281ZM41.7514 36.3516V36.3787H43.3514V36.3516H41.7514ZM41.7514 36.3787C41.7514 38.1468 40.3962 39.6051 38.53 39.8441L38.7332 41.4311C41.3157 41.1004 43.3514 39.0322 43.3514 36.3787H41.7514ZM37.8316 40.6376V40.7325H39.4316V40.6376H37.8316ZM38.591 41.5315C40.9091 41.6492 42.6059 43.302 42.6059 45.3712H44.2059C44.2059 42.3135 41.6981 40.0872 38.6722 39.9336L38.591 41.5315ZM42.6059 45.3712V45.3983H44.2059V45.3712H42.6059ZM42.6059 45.3983C42.6059 46.8756 42.041 48.0439 41.0514 48.858C40.0456 49.6854 38.533 50.2 36.57 50.2V51.8C38.798 51.8 40.7034 51.216 42.0678 50.0936C43.4484 48.958 44.2059 47.3255 44.2059 45.3983H42.6059ZM36.57 50.2H27.2248V51.8H36.57V50.2ZM35.0102 34.141H32.2026V35.741H35.0102V34.141ZM31.4026 34.941V39.4711H33.0026V34.941H31.4026ZM32.2026 40.2711H34.644V38.6711H32.2026V40.2711ZM34.644 40.2711C35.7417 40.2711 36.7042 40.0342 37.4091 39.4851C38.1436 38.9131 38.4957 38.0822 38.4957 37.1382H36.8957C36.8957 37.6591 36.7189 37.9947 36.4259 38.2229C36.1034 38.474 35.54 38.6711 34.644 38.6711V40.2711ZM38.4957 37.1382V37.1111H36.8957V37.1382H38.4957ZM38.4957 37.1111C38.4957 36.2178 38.1553 35.4361 37.4867 34.8954C36.8399 34.3722 35.9694 34.141 35.0102 34.141V35.741C35.7328 35.741 36.2051 35.9166 36.4806 36.1394C36.7343 36.3447 36.8957 36.6481 36.8957 37.1111H38.4957ZM35.0102 41.8043H32.2026V43.4043H35.0102V41.8043ZM31.4026 42.6043V47.4871H33.0026V42.6043H31.4026ZM32.2026 48.2871H35.1594V46.6871H32.2026V48.2871ZM35.1594 48.2871C36.2717 48.2871 37.2658 48.056 37.9998 47.4986C38.7678 46.9154 39.1468 46.0543 39.1468 45.0457H37.5468C37.5468 45.6239 37.3493 45.9836 37.0322 46.2244C36.6812 46.4909 36.0816 46.6871 35.1594 46.6871V48.2871ZM39.1468 45.0457V45.0186H37.5468V45.0457H39.1468ZM39.1468 45.0186C39.1468 44.0165 38.762 43.1577 37.9682 42.5798C37.215 42.0313 36.1869 41.8043 35.0102 41.8043V43.4043C36.0172 43.4043 36.6574 43.6045 37.0265 43.8732C37.3551 44.1125 37.5468 44.4608 37.5468 45.0186H39.1468ZM52.8596 29.8005H52.0596C52.0596 30.2423 52.4177 30.6005 52.8596 30.6005V29.8005ZM52.8596 29.7598L52.3367 29.1543C52.1607 29.3063 52.0596 29.5273 52.0596 29.7598H52.8596ZM51.0421 27.0878H50.2421C50.2421 27.322 50.3448 27.5445 50.523 27.6965C50.7012 27.8485 50.9372 27.9147 51.1685 27.8777L51.0421 27.0878ZM51.0421 24.8091L50.8022 24.0459C50.4689 24.1507 50.2421 24.4597 50.2421 24.8091H51.0421ZM55.2196 29.8005V30.6005C55.3863 30.6005 55.5489 30.5484 55.6846 30.4514L55.2196 29.8005ZM44.4232 51L43.665 50.7447C43.5828 50.9888 43.6231 51.2576 43.7734 51.4668C43.9237 51.676 44.1656 51.8 44.4232 51.8V51ZM51.015 31.4281V30.6281C50.6715 30.6281 50.3664 30.8473 50.2568 31.1727L51.015 31.4281ZM57.1049 31.4281L57.8631 31.1727C57.7534 30.8473 57.4483 30.6281 57.1049 30.6281V31.4281ZM63.6967 51V51.8C63.9543 51.8 64.1961 51.676 64.3464 51.4668C64.4967 51.2576 64.5371 50.9888 64.4549 50.7447L63.6967 51ZM58.4748 51L57.7052 51.2185C57.8029 51.5626 58.1171 51.8 58.4748 51.8V51ZM57.2541 46.7004L58.0237 46.4819C57.926 46.1378 57.6118 45.9004 57.2541 45.9004V46.7004ZM50.8658 46.7004V45.9004C50.5081 45.9004 50.1939 46.1378 50.0962 46.4819L50.8658 46.7004ZM49.6451 51V51.8C50.0027 51.8 50.3169 51.5626 50.4146 51.2185L49.6451 51ZM54.0125 35.687V34.887C53.655 34.887 53.3409 35.1241 53.243 35.4679L54.0125 35.687ZM51.8966 43.1197L51.1271 42.9006C51.0584 43.142 51.1069 43.4015 51.2581 43.6017C51.4093 43.802 51.6457 43.9197 51.8966 43.9197V43.1197ZM56.2233 43.1197V43.9197C56.4742 43.9197 56.7105 43.802 56.8617 43.6017C57.0129 43.4015 57.0614 43.142 56.9927 42.9006L56.2233 43.1197ZM54.1074 35.687L54.8768 35.4679C54.779 35.1241 54.4649 34.887 54.1074 34.887V35.687ZM53.6596 29.8005V29.7598H52.0596V29.8005H53.6596ZM53.3825 30.3652C53.6819 30.1066 54.0221 29.8005 54.2853 29.451C54.5553 29.0924 54.7853 28.635 54.7853 28.0779H53.1853C53.1853 28.1718 53.1508 28.2977 53.0072 28.4884C52.8567 28.6882 52.634 28.8975 52.3367 29.1543L53.3825 30.3652ZM54.7853 28.0779C54.7853 27.429 54.462 26.9031 53.9312 26.5805C53.4472 26.2863 52.8286 26.1793 52.1814 26.1793V27.7793C52.687 27.7793 52.9705 27.8689 53.1002 27.9478C53.1569 27.9822 53.1715 28.0065 53.1739 28.0106C53.1753 28.0131 53.1853 28.0289 53.1853 28.0779H54.7853ZM52.1814 26.1793C51.737 26.1793 51.2665 26.2417 50.9157 26.2978L51.1685 27.8777C51.4958 27.8254 51.8662 27.7793 52.1814 27.7793V26.1793ZM51.8421 27.0878V24.8091H50.2421V27.0878H51.8421ZM51.2819 25.5723C51.6938 25.4429 52.3447 25.3107 52.9816 25.3107V23.7107C52.1537 23.7107 51.3398 23.877 50.8022 24.0459L51.2819 25.5723ZM52.9816 25.3107C53.9424 25.3107 54.6853 25.562 55.1674 25.9289C55.6334 26.2836 55.8844 26.7624 55.8844 27.3455H57.4844C57.4844 26.2332 56.9759 25.2946 56.1364 24.6557C55.3131 24.0292 54.2046 23.7107 52.9816 23.7107V25.3107ZM55.8844 27.3455C55.8844 28.0426 55.499 28.6177 54.7546 29.1495L55.6846 30.4514C56.6491 29.7625 57.4844 28.7643 57.4844 27.3455H55.8844ZM55.2196 29.0005H52.8596V30.6005H55.2196V29.0005ZM45.1813 51.2553L51.7731 31.6834L50.2568 31.1727L43.665 50.7447L45.1813 51.2553ZM51.015 32.2281H57.1049V30.6281H51.015V32.2281ZM56.3467 31.6834L62.9385 51.2553L64.4549 50.7447L57.8631 31.1727L56.3467 31.6834ZM63.6967 50.2H58.4748V51.8H63.6967V50.2ZM59.2444 50.7815L58.0237 46.4819L56.4845 46.9189L57.7052 51.2185L59.2444 50.7815ZM57.2541 45.9004H50.8658V47.5004H57.2541V45.9004ZM50.0962 46.4819L48.8755 50.7815L50.4146 51.2185L51.6353 46.9189L50.0962 46.4819ZM49.6451 50.2H44.4232V51.8H49.6451V50.2ZM53.243 35.4679L51.1271 42.9006L52.666 43.3387L54.7819 35.906L53.243 35.4679ZM51.8966 43.9197H56.2233V42.3197H51.8966V43.9197ZM56.9927 42.9006L54.8768 35.4679L53.338 35.906L55.4539 43.3387L56.9927 42.9006ZM54.1074 34.887H54.0125V36.487H54.1074V34.887ZM73.5301 50.5526C70.7398 50.5526 68.5487 49.6431 67.0528 48.0743C65.5528 46.5013 64.673 44.1825 64.673 41.2208H63.073C63.073 44.4983 64.0515 47.2454 65.8948 49.1785C67.7423 51.1159 70.3797 52.1526 73.5301 52.1526V50.5526ZM64.673 41.2208V41.1937H63.073V41.2208H64.673ZM64.673 41.1937C64.673 38.2408 65.5584 35.9251 67.0621 34.3529C68.5621 32.7846 70.7541 31.8754 73.5301 31.8754V30.2754C70.3925 30.2754 67.756 31.3126 65.9058 33.247C64.0594 35.1775 63.073 37.921 63.073 41.1937H64.673ZM73.5301 31.8754C76.3278 31.8754 78.5225 32.7854 80.0199 34.3526C81.5214 35.924 82.4008 38.2393 82.4008 41.1937H84.0008C84.0008 37.9225 83.0221 35.1786 81.1768 33.2473C79.3275 31.3118 76.6868 30.2754 73.5301 30.2754V31.8754ZM82.4008 41.1937V41.2208H84.0008V41.1937H82.4008ZM82.4008 41.2208C82.4008 44.1832 81.524 46.5018 80.0245 48.0743C78.5291 49.6425 76.335 50.5526 73.5301 50.5526V52.1526C76.6932 52.1526 79.3344 51.1165 81.1824 49.1785C83.0262 47.2449 84.0008 44.4975 84.0008 41.2208H82.4008ZM73.5301 48.0294C75.1974 48.0294 76.5878 47.3348 77.5397 46.0892C78.4739 44.8668 78.9417 43.1758 78.9417 41.2208H77.3417C77.3417 42.9415 76.9279 44.2547 76.2684 45.1177C75.6266 45.9575 74.7112 46.4294 73.5301 46.4294V48.0294ZM78.9417 41.2208V41.1937H77.3417V41.2208H78.9417ZM78.9417 41.1937C78.9417 39.2223 78.4623 37.5334 77.5214 36.3179C76.5639 35.0811 75.1749 34.3987 73.5301 34.3987V35.9987C74.693 35.9987 75.6098 36.4623 76.2562 37.2973C76.9191 38.1536 77.3417 39.4623 77.3417 41.1937H78.9417ZM73.5301 34.3987C71.898 34.3987 70.5157 35.0785 69.562 36.3136C68.6248 37.5274 68.1457 39.216 68.1457 41.1937H69.7457C69.7457 39.455 70.1686 38.1461 70.8285 37.2915C71.4719 36.4581 72.3818 35.9987 73.5301 35.9987V34.3987ZM68.1457 41.1937V41.2208H69.7457V41.1937H68.1457ZM68.1457 41.2208C68.1457 43.1971 68.6208 44.8887 69.5557 46.106C70.5075 47.3454 71.8904 48.0294 73.5301 48.0294V46.4294C72.3758 46.4294 71.4665 45.9673 70.8246 45.1315C70.1658 44.2736 69.7457 42.9609 69.7457 41.2208H68.1457ZM91.0269 51H90.2269C90.2269 51.4418 90.5851 51.8 91.0269 51.8V51ZM91.0269 31.4281V30.6281C90.5851 30.6281 90.2269 30.9862 90.2269 31.4281H91.0269ZM96.0046 31.4281H96.8046C96.8046 30.9862 96.4465 30.6281 96.0046 30.6281V31.4281ZM96.0046 39.1185H95.2046C95.2046 39.5603 95.5628 39.9185 96.0046 39.9185V39.1185ZM103.804 39.1185V39.9185C104.245 39.9185 104.604 39.5603 104.604 39.1185H103.804ZM103.804 31.4281V30.6281C103.362 30.6281 103.004 30.9862 103.004 31.4281H103.804ZM108.768 31.4281H109.568C109.568 30.9862 109.21 30.6281 108.768 30.6281V31.4281ZM108.768 51V51.8C109.21 51.8 109.568 51.4418 109.568 51H108.768ZM103.804 51H103.004C103.004 51.4418 103.362 51.8 103.804 51.8V51ZM103.804 43.1197H104.604C104.604 42.6779 104.245 42.3197 103.804 42.3197V43.1197ZM96.0046 43.1197V42.3197C95.5628 42.3197 95.2046 42.6779 95.2046 43.1197H96.0046ZM96.0046 51V51.8C96.4465 51.8 96.8046 51.4418 96.8046 51H96.0046ZM91.8269 51V31.4281H90.2269V51H91.8269ZM91.0269 32.2281H96.0046V30.6281H91.0269V32.2281ZM95.2046 31.4281V39.1185H96.8046V31.4281H95.2046ZM96.0046 39.9185H103.804V38.3185H96.0046V39.9185ZM104.604 39.1185V31.4281H103.004V39.1185H104.604ZM103.804 32.2281H108.768V30.6281H103.804V32.2281ZM107.968 31.4281V51H109.568V31.4281H107.968ZM108.768 50.2H103.804V51.8H108.768V50.2ZM104.604 51V43.1197H103.004V51H104.604ZM103.804 42.3197H96.0046V43.9197H103.804V42.3197ZM95.2046 43.1197V51H96.8046V43.1197H95.2046ZM96.0046 50.2H91.0269V51.8H96.0046V50.2ZM119.293 29.8005L118.641 30.2637C118.791 30.475 119.034 30.6005 119.293 30.6005V29.8005ZM115.902 25.0262V24.2262C115.603 24.2262 115.329 24.3932 115.191 24.6591C115.054 24.9251 115.077 25.2454 115.25 25.4894L115.902 25.0262ZM119.917 25.0262L120.628 24.6603C120.491 24.3937 120.217 24.2262 119.917 24.2262V25.0262ZM122.372 29.8005V30.6005C122.651 30.6005 122.909 30.4552 123.055 30.2172C123.2 29.9791 123.211 29.6826 123.083 29.4346L122.372 29.8005ZM110.667 51L109.908 50.7447C109.826 50.9888 109.867 51.2576 110.017 51.4668C110.167 51.676 110.409 51.8 110.667 51.8V51ZM117.258 31.4281V30.6281C116.915 30.6281 116.61 30.8473 116.5 31.1727L117.258 31.4281ZM123.348 31.4281L124.107 31.1727C123.997 30.8473 123.692 30.6281 123.348 30.6281V31.4281ZM129.94 51V51.8C130.198 51.8 130.44 51.676 130.59 51.4668C130.74 51.2576 130.781 50.9888 130.698 50.7447L129.94 51ZM124.718 51L123.949 51.2185C124.046 51.5626 124.361 51.8 124.718 51.8V51ZM123.498 46.7004L124.267 46.4819C124.169 46.1378 123.855 45.9004 123.498 45.9004V46.7004ZM117.109 46.7004V45.9004C116.752 45.9004 116.437 46.1378 116.34 46.4819L117.109 46.7004ZM115.889 51V51.8C116.246 51.8 116.56 51.5626 116.658 51.2185L115.889 51ZM120.256 35.687V34.887C119.898 34.887 119.584 35.1241 119.487 35.4679L120.256 35.687ZM118.14 43.1197L117.371 42.9006C117.302 43.142 117.35 43.4015 117.502 43.6017C117.653 43.802 117.889 43.9197 118.14 43.9197V43.1197ZM122.467 43.1197V43.9197C122.718 43.9197 122.954 43.802 123.105 43.6017C123.256 43.4015 123.305 43.142 123.236 42.9006L122.467 43.1197ZM120.351 35.687L121.12 35.4679C121.022 35.1241 120.708 34.887 120.351 34.887V35.687ZM119.945 29.3372L116.554 24.5629L115.25 25.4894L118.641 30.2637L119.945 29.3372ZM115.902 25.8262H119.917V24.2262H115.902V25.8262ZM119.205 25.392L121.66 30.1663L123.083 29.4346L120.628 24.6603L119.205 25.392ZM122.372 29.0005H119.293V30.6005H122.372V29.0005ZM111.425 51.2553L118.017 31.6834L116.5 31.1727L109.908 50.7447L111.425 51.2553ZM117.258 32.2281H123.348V30.6281H117.258V32.2281ZM122.59 31.6834L129.182 51.2553L130.698 50.7447L124.107 31.1727L122.59 31.6834ZM129.94 50.2H124.718V51.8H129.94V50.2ZM125.488 50.7815L124.267 46.4819L122.728 46.9189L123.949 51.2185L125.488 50.7815ZM123.498 45.9004H117.109V47.5004H123.498V45.9004ZM116.34 46.4819L115.119 50.7815L116.658 51.2185L117.879 46.9189L116.34 46.4819ZM115.889 50.2H110.667V51.8H115.889V50.2ZM119.487 35.4679L117.371 42.9006L118.909 43.3387L121.025 35.906L119.487 35.4679ZM118.14 43.9197H122.467V42.3197H118.14V43.9197ZM123.236 42.9006L121.12 35.4679L119.581 35.906L121.697 43.3387L123.236 42.9006ZM120.351 34.887H120.256V36.487H120.351V34.887ZM131.826 51H131.025C131.025 51.4418 131.384 51.8 131.826 51.8V51ZM131.826 31.4281V30.6281C131.384 30.6281 131.025 30.9862 131.025 31.4281H131.826ZM136.044 31.4281L136.701 30.9725C136.552 30.7568 136.306 30.6281 136.044 30.6281V31.4281ZM143.87 42.7263L143.212 43.1819C143.362 43.3976 143.607 43.5263 143.87 43.5263V42.7263ZM143.965 42.7263V43.5263C144.407 43.5263 144.765 43.1682 144.765 42.7263H143.965ZM143.965 31.4281V30.6281C143.523 30.6281 143.165 30.9862 143.165 31.4281H143.965ZM148.929 31.4281H149.729C149.729 30.9862 149.371 30.6281 148.929 30.6281V31.4281ZM148.929 51V51.8C149.371 51.8 149.729 51.4418 149.729 51H148.929ZM144.751 51L144.093 51.4538C144.242 51.6706 144.488 51.8 144.751 51.8V51ZM136.885 39.5796L137.543 39.1258C137.394 38.9091 137.148 38.7796 136.885 38.7796V39.5796ZM136.79 39.5796V38.7796C136.348 38.7796 135.99 39.1378 135.99 39.5796H136.79ZM136.79 51V51.8C137.232 51.8 137.59 51.4418 137.59 51H136.79ZM132.625 51V31.4281H131.025V51H132.625ZM131.826 32.2281H136.044V30.6281H131.826V32.2281ZM135.386 31.8836L143.212 43.1819L144.527 42.2708L136.701 30.9725L135.386 31.8836ZM143.87 43.5263H143.965V41.9263H143.87V43.5263ZM144.765 42.7263V31.4281H143.165V42.7263H144.765ZM143.965 32.2281H148.929V30.6281H143.965V32.2281ZM148.129 31.4281V51H149.729V31.4281H148.129ZM148.929 50.2H144.751V51.8H148.929V50.2ZM145.41 50.5462L137.543 39.1258L136.226 40.0335L144.093 51.4538L145.41 50.5462ZM136.885 38.7796H136.79V40.3796H136.885V38.7796ZM135.99 39.5796V51H137.59V39.5796H135.99ZM136.79 50.2H131.826V51.8H136.79V50.2ZM151.899 51H151.099C151.099 51.4418 151.457 51.8 151.899 51.8V51ZM151.899 31.4281V30.6281C151.457 30.6281 151.099 30.9862 151.099 31.4281H151.899ZM156.877 31.4281H157.677C157.677 30.9862 157.319 30.6281 156.877 30.6281V31.4281ZM156.877 39.1185H156.077C156.077 39.5603 156.435 39.9185 156.877 39.9185V39.1185ZM164.676 39.1185V39.9185C165.118 39.9185 165.476 39.5603 165.476 39.1185H164.676ZM164.676 31.4281V30.6281C164.234 30.6281 163.876 30.9862 163.876 31.4281H164.676ZM169.64 31.4281H170.44C170.44 30.9862 170.082 30.6281 169.64 30.6281V31.4281ZM169.64 51V51.8C170.082 51.8 170.44 51.4418 170.44 51H169.64ZM164.676 51H163.876C163.876 51.4418 164.234 51.8 164.676 51.8V51ZM164.676 43.1197H165.476C165.476 42.6779 165.118 42.3197 164.676 42.3197V43.1197ZM156.877 43.1197V42.3197C156.435 42.3197 156.077 42.6779 156.077 43.1197H156.877ZM156.877 51V51.8C157.319 51.8 157.677 51.4418 157.677 51H156.877ZM152.699 51V31.4281H151.099V51H152.699ZM151.899 32.2281H156.877V30.6281H151.899V32.2281ZM156.077 31.4281V39.1185H157.677V31.4281H156.077ZM156.877 39.9185H164.676V38.3185H156.877V39.9185ZM165.476 39.1185V31.4281H163.876V39.1185H165.476ZM164.676 32.2281H169.64V30.6281H164.676V32.2281ZM168.84 31.4281V51H170.44V31.4281H168.84ZM169.64 50.2H164.676V51.8H169.64V50.2ZM165.476 51V43.1197H163.876V51H165.476ZM164.676 42.3197H156.877V43.9197H164.676V42.3197ZM156.077 43.1197V51H157.677V43.1197H156.077ZM156.877 50.2H151.899V51.8H156.877V50.2Z" fill="#83200E" mask="url(#path-5-outside-1_3189_82)"/>
</g>
</g>
<defs>
<filter id="filter0_d_3189_82" x="27.2502" y="74.9333" width="153.078" height="74.4" filterUnits="userSpaceOnUse" color-interpolation-filters="sRGB">
<feFlood flood-opacity="0" result="BackgroundImageFix"/>
<feColorMatrix in="SourceAlpha" type="matrix" values="0 0 0 0 0 0 0 0 0 0 0 0 0 0 0 0 0 0 127 0" result="hardAlpha"/>
<feOffset dx="4" dy="4"/>
<feGaussianBlur stdDeviation="6"/>
<feComposite in2="hardAlpha" operator="out"/>
<feColorMatrix type="matrix" values="0 0 0 0 0 0 0 0 0 0 0 0 0 0 0 0 0 0 0.6 0"/>
<feBlend mode="normal" in2="BackgroundImageFix" result="effect1_dropShadow_3189_82"/>
<feBlend mode="normal" in="SourceGraphic" in2="effect1_dropShadow_3189_82" result="shape"/>
</filter>
<filter id="filter1_d_3189_82" x="19.2249" y="16.5107" width="166.415" height="50.8419" filterUnits="userSpaceOnUse" color-interpolation-filters="sRGB">
<feFlood flood-opacity="0" result="BackgroundImageFix"/>
<feColorMatrix in="SourceAlpha" type="matrix" values="0 0 0 0 0 0 0 0 0 0 0 0 0 0 0 0 0 0 127 0" result="hardAlpha"/>
<feOffset dx="4" dy="4"/>
<feGaussianBlur stdDeviation="6"/>
<feComposite in2="hardAlpha" operator="out"/>
<feColorMatrix type="matrix" values="0 0 0 0 0 0 0 0 0 0 0 0 0 0 0 0 0 0 0.6 0"/>
<feBlend mode="normal" in2="BackgroundImageFix" result="effect1_dropShadow_3189_82"/>
<feBlend mode="normal" in="SourceGraphic" in2="effect1_dropShadow_3189_82" result="shape"/>
</filter>
<radialGradient id="paint0_radial_3189_82" cx="0" cy="0" r="1" gradientUnits="userSpaceOnUse" gradientTransform="translate(99.3354 -1.65613) rotate(90) scale(203.312 176.797)">
<stop stop-color="#FDFDF0"/>
<stop offset="0.5" stop-color="#E2C59F"/>
<stop offset="0.918359" stop-color="#DDA071"/>
<stop offset="1" stop-color="#F8D197"/>
</radialGradient>
<radialGradient id="paint1_radial_3189_82" cx="0" cy="0" r="1" gradientUnits="userSpaceOnUse" gradientTransform="translate(43.9101 40.5445) rotate(59.7176) scale(159.873)">
<stop stop-color="#F92821"/>
<stop offset="1" stop-color="#D90B0F"/>
</radialGradient>
<linearGradient id="paint2_linear_3189_82" x1="26.0501" y1="62.576" x2="196.104" y2="105.02" gradientUnits="userSpaceOnUse">
<stop stop-color="#F3EAD6"/>
<stop offset="0.149674" stop-color="#FBE0B3"/>
<stop offset="0.672372" stop-color="#FBE0B3"/>
<stop offset="1" stop-color="#FDECD5"/>
</linearGradient>
<clipPath id="clip0_3189_82">
<rect width="200" height="200" fill="white" transform="translate(0.00146484)"/>
</clipPath>
</defs>
</svg>
