<svg width="200" height="200" viewBox="0 0 200 200" fill="none" xmlns="http://www.w3.org/2000/svg">
<g clip-path="url(#clip0_3189_175)">
<path d="M96.6734 3.71079C100.036 1.46449 104.42 1.46449 107.783 3.71079L116.343 9.42913C118.548 10.902 121.247 11.4389 123.848 10.9219L133.945 8.91464C137.911 8.12613 141.962 9.80401 144.209 13.1661L149.929 21.725C151.402 23.9294 153.69 25.4585 156.291 25.976L166.387 27.9854C170.353 28.7748 173.454 31.8751 174.243 35.8411L176.252 45.9375C176.77 48.5379 178.299 50.8264 180.503 52.2997L189.062 58.0198C192.424 60.2668 194.102 64.3176 193.314 68.2838L191.306 78.3806C190.789 80.9811 191.326 83.6805 192.799 85.8853L198.518 94.4453C200.764 97.8079 200.764 102.192 198.518 105.555L192.799 114.115C191.326 116.32 190.789 119.019 191.306 121.62L193.314 131.716C194.102 135.683 192.424 139.733 189.062 141.98L180.503 147.701C178.299 149.174 176.77 151.462 176.252 154.063L174.243 164.159C173.454 168.125 170.353 171.226 166.387 172.015L156.291 174.024C153.69 174.542 151.402 176.071 149.929 178.275L144.209 186.834C141.962 190.196 137.911 191.874 133.945 191.086L123.848 189.078C121.247 188.561 118.548 189.098 116.343 190.571L107.783 196.289C104.42 198.536 100.036 198.536 96.6734 196.289L88.1133 190.571C85.9086 189.098 83.2092 188.561 80.6086 189.078L70.5119 191.086C66.5456 191.874 62.4949 190.196 60.2479 186.834L54.5278 178.275C53.0545 176.071 50.766 174.542 48.1656 174.024L38.0692 172.015C34.1031 171.226 31.0028 168.125 30.2135 164.159L28.2041 154.063C27.6866 151.462 26.1575 149.174 23.953 147.701L15.3942 141.98C12.0321 139.733 10.3542 135.683 11.1427 131.716L13.15 121.62C13.667 119.019 13.13 116.32 11.6572 114.115L5.93887 105.555C3.69257 102.192 3.69257 97.8079 5.93887 94.4453L11.6572 85.8853C13.13 83.6805 13.667 80.9811 13.15 78.3806L11.1427 68.2838C10.3542 64.3176 12.0321 60.2668 15.3942 58.0198L23.953 52.2997C26.1575 50.8264 27.6866 48.5379 28.2041 45.9375L30.2135 35.8412C31.0028 31.8751 34.1031 28.7748 38.0692 27.9854L48.1656 25.976C50.766 25.4585 53.0545 23.9294 54.5278 21.725L60.2479 13.1661C62.4949 9.80401 66.5456 8.12613 70.5119 8.91464L80.6086 10.9219C83.2092 11.4389 85.9086 10.902 88.1133 9.42913L96.6734 3.71079Z" fill="url(#paint0_radial_3189_175)"/>
<path d="M96.7116 11.4948C99.906 9.36085 104.071 9.36085 107.266 11.4948L114.532 16.3489C116.847 17.8954 119.681 18.4592 122.412 17.9163L130.983 16.2124C134.751 15.4634 138.599 17.0573 140.734 20.2514L145.589 27.5166C147.136 29.8313 149.539 31.4368 152.269 31.9802L160.84 33.6859C164.608 34.4358 167.553 37.3811 168.303 41.1489L170.008 49.7193C170.552 52.4497 172.157 54.8526 174.472 56.3995L181.737 61.2551C184.931 63.3898 186.525 67.238 185.776 71.0059L184.072 79.5767C183.529 82.3072 184.093 85.1416 185.64 87.4566L190.494 94.7229C192.628 97.9173 192.628 102.083 190.494 105.277L185.64 112.543C184.093 114.858 183.529 117.693 184.072 120.423L185.776 128.994C186.525 132.762 184.931 136.61 181.737 138.745L174.472 143.6C172.157 145.147 170.552 147.55 170.008 150.281L168.303 158.851C167.553 162.619 164.608 165.564 160.84 166.314L152.269 168.02C149.539 168.563 147.136 170.169 145.589 172.483L140.734 179.749C138.599 182.943 134.751 184.537 130.983 183.788L122.412 182.084C119.681 181.541 116.847 182.105 114.532 183.651L107.266 188.505C104.071 190.639 99.906 190.639 96.7116 188.505L89.4453 183.651C87.1303 182.105 84.2959 181.541 81.5654 182.084L72.9946 183.788C69.2267 184.537 65.3785 182.943 63.2438 179.749L58.3883 172.483C56.8413 170.169 54.4384 168.563 51.7079 168.02L43.1376 166.314C39.3698 165.564 36.4245 162.619 35.6746 158.851L33.9689 150.281C33.4255 147.55 31.82 145.147 29.5053 143.6L22.2401 138.745C19.046 136.61 17.4521 132.762 18.2011 128.994L19.905 120.423C20.4479 117.693 19.8841 114.858 18.3376 112.543L13.4835 105.277C11.3496 102.083 11.3496 97.9173 13.4835 94.7229L18.3376 87.4566C19.8841 85.1416 20.4479 82.3072 19.905 79.5767L18.2011 71.0059C17.4521 67.238 19.046 63.3898 22.2401 61.2551L29.5053 56.3996C31.82 54.8526 33.4255 52.4497 33.9689 49.7192L35.6746 41.1489C36.4245 37.3811 39.3698 34.4358 43.1376 33.6859L51.7079 31.9802C54.4384 31.4368 56.8413 29.8313 58.3883 27.5166L63.2438 20.2514C65.3785 17.0573 69.2267 15.4634 72.9946 16.2124L81.5654 17.9163C84.296 18.4592 87.1303 17.8954 89.4453 16.3489L96.7116 11.4948Z" fill="url(#paint1_radial_3189_175)" stroke="url(#paint2_linear_3189_175)"/>
<g filter="url(#filter0_d_3189_175)">
<path d="M63.6509 80V69.541H61.771V65.7983H63.6509V55.3394H73.6484C81.0825 55.3394 85.4746 59.646 85.4746 67.4902V67.5244C85.4746 75.4028 81.0825 80 73.6484 80H63.6509ZM69.9058 74.9414H72.8281C76.9126 74.9414 79.1001 72.4634 79.1001 67.5415V67.5073C79.1001 62.8931 76.7759 60.3979 72.8281 60.3979H69.9058V65.7983H73.2554V69.541H69.9058V74.9414ZM93.5923 53.2886L97.6768 47.2729H102.376L106.512 53.2886H102.411L100.001 49.8877L97.6938 53.2886H93.5923ZM100.035 80.4443C92.5498 80.4443 87.8672 75.5396 87.8672 67.6782V67.644C87.8672 59.7998 92.584 54.895 100.035 54.895C107.538 54.895 112.22 59.7998 112.22 67.644V67.6782C112.22 75.5396 107.555 80.4443 100.035 80.4443ZM100.035 75.249C103.624 75.249 105.846 72.3096 105.846 67.6782V67.644C105.846 62.9785 103.573 60.0903 100.035 60.0903C96.5317 60.0903 94.2588 62.9614 94.2588 67.644V67.6782C94.2588 72.3608 96.5146 75.249 100.035 75.249ZM100.052 87.981C98.3091 87.981 96.959 86.6138 96.959 84.9902C96.959 83.3496 98.3091 81.9995 100.052 81.9995C101.795 81.9995 103.146 83.3496 103.146 84.9902C103.146 86.6138 101.795 87.981 100.052 87.981ZM126.593 80.4443C119.193 80.4443 114.596 75.7104 114.596 67.6611V67.644C114.596 59.5947 119.227 54.895 126.593 54.895C133.036 54.895 137.496 59.0308 137.718 64.5508V64.7217H131.686L131.651 64.4653C131.258 61.9019 129.464 60.0903 126.593 60.0903C123.158 60.0903 120.987 62.9102 120.987 67.627V67.644C120.987 72.4121 123.175 75.249 126.61 75.249C129.327 75.249 131.258 73.5571 131.686 70.8057L131.72 70.6177H137.752L137.735 70.8057C137.513 76.3257 133.001 80.4443 126.593 80.4443ZM52.4912 120.444C45.0059 120.444 40.3232 115.54 40.3232 107.678V107.644C40.3232 99.7998 45.04 94.895 52.4912 94.895C59.9937 94.895 64.6763 99.7998 64.6763 107.644V107.678C64.6763 111.917 63.3091 115.317 60.8652 117.522L64.061 122.068H58.3872L56.7979 119.812C55.499 120.222 54.0635 120.444 52.4912 120.444ZM52.4912 115.249C52.8672 115.249 53.209 115.215 53.5508 115.164L50.5088 110.806H56.1826L57.2764 112.378C57.9258 111.147 58.3018 109.541 58.3018 107.678V107.644C58.3018 102.979 56.0288 100.09 52.4912 100.09C48.9878 100.09 46.7148 102.961 46.7148 107.644V107.678C46.7148 112.361 48.9707 115.249 52.4912 115.249ZM78.3481 120.444C71.9224 120.444 67.7354 116.804 67.7354 111.25V95.3394H74.0073V110.652C74.0073 113.523 75.5454 115.249 78.3652 115.249C81.168 115.249 82.7061 113.523 82.7061 110.652V95.3394H88.978V111.25C88.978 116.787 84.8252 120.444 78.3481 120.444ZM99.8472 120V111.523L91.3535 95.3394H98.0186L102.923 105.593H103.043L107.948 95.3394H114.613L106.119 111.523V120H99.8472ZM130.797 90.0244H128.148L124.593 86.6748H128.609L130.797 90.0244ZM123.568 90.7935H127.276L131.156 94.2456H127.259L125.414 92.6392L123.636 94.2456H119.723L123.568 90.7935ZM116.988 120V95.3394H133.89V100.381H123.26V105.251H133.258V109.968H123.26V114.958H133.89V120H116.988ZM137.428 120V95.3394H142.743L152.604 109.575H152.723V95.3394H158.978V120H153.714L143.802 105.61H143.683V120H137.428Z" fill="white"/>
</g>
<path d="M98.663 143.746C99.2184 142.65 100.784 142.65 101.339 143.746L104.668 150.313C105.037 151.041 105.739 151.543 106.547 151.658L113.901 152.698C115.143 152.874 115.634 154.407 114.723 155.271L109.471 160.256C108.863 160.833 108.584 161.677 108.73 162.503L109.979 169.595C110.194 170.815 108.921 171.754 107.818 171.19L101.14 167.771C100.425 167.405 99.5771 167.405 98.8618 167.771L92.1836 171.19C91.0809 171.754 89.8079 170.815 90.0229 169.595L91.272 162.503C91.4175 161.677 91.1392 160.833 90.5309 160.256L85.2788 155.271C84.3684 154.407 84.8585 152.874 86.1012 152.698L93.4547 151.658C94.2634 151.543 94.9651 151.041 95.3344 150.313L98.663 143.746Z" fill="url(#paint3_radial_3189_175)" stroke="url(#paint4_linear_3189_175)"/>
</g>
<defs>
<filter id="filter0_d_3189_175" x="31.278" y="38.2277" width="145.791" height="101.931" filterUnits="userSpaceOnUse" color-interpolation-filters="sRGB">
<feFlood flood-opacity="0" result="BackgroundImageFix"/>
<feColorMatrix in="SourceAlpha" type="matrix" values="0 0 0 0 0 0 0 0 0 0 0 0 0 0 0 0 0 0 127 0" result="hardAlpha"/>
<feOffset dx="4.52263" dy="4.52263"/>
<feGaussianBlur stdDeviation="6.78395"/>
<feComposite in2="hardAlpha" operator="out"/>
<feColorMatrix type="matrix" values="0 0 0 0 0 0 0 0 0 0 0 0 0 0 0 0 0 0 1 0"/>
<feBlend mode="normal" in2="BackgroundImageFix" result="effect1_dropShadow_3189_175"/>
<feBlend mode="normal" in="SourceGraphic" in2="effect1_dropShadow_3189_175" result="shape"/>
</filter>
<radialGradient id="paint0_radial_3189_175" cx="0" cy="0" r="1" gradientUnits="userSpaceOnUse" gradientTransform="translate(102.228) rotate(90) scale(200 173.918)">
<stop stop-color="#FDFDF0"/>
<stop offset="0.5" stop-color="#E2C59F"/>
<stop offset="0.918359" stop-color="#DDA071"/>
<stop offset="1" stop-color="#F8D197"/>
</radialGradient>
<radialGradient id="paint1_radial_3189_175" cx="0" cy="0" r="1" gradientUnits="userSpaceOnUse" gradientTransform="translate(101.989 52.6315) rotate(90) scale(140)">
<stop stop-color="#312B2F"/>
<stop offset="1" stop-color="#161315"/>
</radialGradient>
<linearGradient id="paint2_linear_3189_175" x1="31.0785" y1="63.7883" x2="195.622" y2="104.857" gradientUnits="userSpaceOnUse">
<stop stop-color="#F3EAD6"/>
<stop offset="0.149674" stop-color="#FBE0B3"/>
<stop offset="0.672372" stop-color="#FBE0B3"/>
<stop offset="1" stop-color="#FDECD5"/>
</linearGradient>
<radialGradient id="paint3_radial_3189_175" cx="0" cy="0" r="1" gradientUnits="userSpaceOnUse" gradientTransform="translate(100.001 140) rotate(90) scale(37 33.0443)">
<stop stop-color="#FDFDF0"/>
<stop offset="0.5" stop-color="#E2C59F"/>
<stop offset="0.918359" stop-color="#DDA071"/>
<stop offset="1" stop-color="#F8D197"/>
</radialGradient>
<linearGradient id="paint4_linear_3189_175" x1="85.4563" y1="151.268" x2="119.098" y2="159.892" gradientUnits="userSpaceOnUse">
<stop stop-color="#F3EAD6"/>
<stop offset="0.149674" stop-color="#FBE0B3"/>
<stop offset="0.672372" stop-color="#FBE0B3"/>
<stop offset="1" stop-color="#FDECD5"/>
</linearGradient>
<clipPath id="clip0_3189_175">
<rect width="200" height="200" fill="white" transform="translate(0.000976562)"/>
</clipPath>
</defs>
</svg>
