<svg width="200" height="200" viewBox="0 0 200 200" fill="none" xmlns="http://www.w3.org/2000/svg">
<circle cx="100" cy="100" r="95" fill="url(#paint0_radial_3189_109)"/>
<circle cx="100" cy="100" r="87.53" fill="url(#paint1_radial_3189_109)" stroke="url(#paint2_linear_3189_109)" stroke-width="0.94"/>
<path d="M42.5257 61.2047V52.2673H40.9193V49.0691H42.5257V40.1316H51.0689C57.4215 40.1316 61.1746 43.8118 61.1746 50.5148V50.544C61.1746 57.2763 57.4215 61.2047 51.0689 61.2047H42.5257ZM47.8707 56.882H50.3679C53.8582 56.882 55.7275 54.7645 55.7275 50.5586V50.5294C55.7275 46.5864 53.7414 44.4543 50.3679 44.4543H47.8707V49.0691H50.733V52.2673H47.8707V56.882ZM76.5225 36.2471V36.1886C76.8438 35.9404 77.019 35.6921 77.019 35.4C77.019 34.9327 76.6977 34.6114 75.7485 34.6114C75.471 34.6114 75.1936 34.626 74.9599 34.6845V32.9466C75.3104 32.8444 75.9237 32.7276 76.6101 32.7276C78.4356 32.7276 79.5162 33.3847 79.5162 34.4654C79.5162 35.181 79.0343 35.7359 78.2311 36.2471H76.5225ZM72.6233 36.2471H75.7923L79.1073 39.197H75.7777L74.2005 37.8242L72.6817 39.197H69.3375L72.6233 36.2471ZM74.2151 61.5844C67.8187 61.5844 63.8173 57.3932 63.8173 50.6755V50.6463C63.8173 43.9432 67.8479 39.7519 74.2151 39.7519C80.6261 39.7519 84.6275 43.9432 84.6275 50.6463V50.6755C84.6275 57.3932 80.6407 61.5844 74.2151 61.5844ZM74.2151 57.1449C77.2819 57.1449 79.1804 54.6331 79.1804 50.6755V50.6463C79.1804 46.6595 77.2381 44.1914 74.2151 44.1914C71.2214 44.1914 69.2791 46.6449 69.2791 50.6463V50.6755C69.2791 54.6769 71.2068 57.1449 74.2151 57.1449ZM87.8397 61.2047V40.1316H93.1993V61.2047H87.8397ZM103.406 61.2047V40.1316H109.598L114.885 53.9029H114.972L120.259 40.1316H126.451V61.2047H121.734V48.0322H121.617L116.462 61.2047H113.395L108.24 48.0322H108.123V61.2047H103.406ZM140.543 38.3792H137.242L139.871 33.2387H144.208L140.543 38.3792ZM140.046 61.5844C133.65 61.5844 129.648 57.3932 129.648 50.6755V50.6463C129.648 43.9432 133.679 39.7519 140.046 39.7519H140.061C145.347 39.6497 146.384 38.7005 146.428 35.5899H150.269C150.196 38.9779 149.261 40.6866 146.209 41.4752C148.925 43.3006 150.458 46.4842 150.458 50.6463V50.6755C150.458 57.3932 146.472 61.5844 140.046 61.5844ZM140.046 57.1449C143.113 57.1449 145.011 54.6331 145.011 50.6755V50.6463C145.011 46.6595 143.069 44.1914 140.046 44.1914C137.052 44.1914 135.11 46.6449 135.11 50.6463V50.6755C135.11 54.6769 137.038 57.1449 140.046 57.1449ZM153.671 61.2047V40.1316H159.03V61.2047H153.671Z" fill="url(#paint3_linear_3189_109)"/>
<g filter="url(#filter0_d_3189_109)">
<path d="M43.0864 130V86.2109H42.813L28.7114 95.6641V83.3984L43.0474 73.6328H57.3442V130H43.0864ZM92.7739 131.016C77.7739 131.016 68.5942 119.805 68.5942 101.836V101.758C68.5942 83.7891 77.7739 72.6172 92.7739 72.6172C107.774 72.6172 116.915 83.7891 116.915 101.758V101.836C116.915 119.805 107.774 131.016 92.7739 131.016ZM92.7739 119.805C98.9849 119.805 102.422 113.281 102.422 101.836V101.758C102.422 90.3125 98.9849 83.8281 92.7739 83.8281C86.563 83.8281 83.0864 90.3125 83.0864 101.758V101.836C83.0864 113.281 86.563 119.805 92.7739 119.805ZM147.305 131.016C132.305 131.016 123.125 119.805 123.125 101.836V101.758C123.125 83.7891 132.305 72.6172 147.305 72.6172C162.305 72.6172 171.446 83.7891 171.446 101.758V101.836C171.446 119.805 162.305 131.016 147.305 131.016ZM147.305 119.805C153.516 119.805 156.954 113.281 156.954 101.836V101.758C156.954 90.3125 153.516 83.8281 147.305 83.8281C141.094 83.8281 137.618 90.3125 137.618 101.758V101.836C137.618 113.281 141.094 119.805 147.305 119.805Z" fill="white"/>
</g>
<g filter="url(#filter1_d_3189_109)">
<path d="M63.0005 163.247V144.223H67.1006L74.7075 155.205H74.7998V144.223H79.625V163.247H75.5645L67.918 152.146H67.8257V163.247H63.0005Z" fill="white"/>
<path d="M91.9248 163.589C86.0581 163.589 82.5249 159.964 82.5249 153.702V153.688C82.5249 147.519 86.0713 143.88 91.8061 143.88C96.4731 143.88 99.8349 146.622 100.336 150.313L100.362 150.472H95.5766L95.5371 150.34C95.0361 148.797 93.6782 147.888 91.8193 147.888C89.0771 147.888 87.4555 149.944 87.4555 153.636V153.649C87.4555 157.419 89.2485 159.582 92.0302 159.582C94.2187 159.582 95.7216 158.395 95.8798 156.483L95.893 156.246H92.083V152.818H100.56V155.205C100.56 160.412 97.3432 163.589 91.9248 163.589Z" fill="white"/>
<path d="M110.012 142.641L106.716 138H110.619L113.005 142.641H110.012ZM101.627 163.247L108.035 144.223H113.954L120.361 163.247H115.286L114.099 159.067H107.89L106.703 163.247H101.627ZM110.948 148.362L108.892 155.587H113.097L111.04 148.362H110.948Z" fill="white"/>
<path d="M125.436 163.247V156.708L118.884 144.223H124.026L127.809 152.133H127.902L131.685 144.223H136.827L130.275 156.708V163.247H125.436Z" fill="white"/>
</g>
<defs>
<filter id="filter0_d_3189_109" x="20.7114" y="64.6172" width="166.734" height="82.3984" filterUnits="userSpaceOnUse" color-interpolation-filters="sRGB">
<feFlood flood-opacity="0" result="BackgroundImageFix"/>
<feColorMatrix in="SourceAlpha" type="matrix" values="0 0 0 0 0 0 0 0 0 0 0 0 0 0 0 0 0 0 127 0" result="hardAlpha"/>
<feOffset dx="4" dy="4"/>
<feGaussianBlur stdDeviation="6"/>
<feComposite in2="hardAlpha" operator="out"/>
<feColorMatrix type="matrix" values="0 0 0 0 0.378958 0 0 0 0 0.0460417 0 0 0 0 0.0460417 0 0 0 1 0"/>
<feBlend mode="normal" in2="BackgroundImageFix" result="effect1_dropShadow_3189_109"/>
<feBlend mode="normal" in="SourceGraphic" in2="effect1_dropShadow_3189_109" result="shape"/>
</filter>
<filter id="filter1_d_3189_109" x="55.0005" y="130" width="97.8265" height="49.5894" filterUnits="userSpaceOnUse" color-interpolation-filters="sRGB">
<feFlood flood-opacity="0" result="BackgroundImageFix"/>
<feColorMatrix in="SourceAlpha" type="matrix" values="0 0 0 0 0 0 0 0 0 0 0 0 0 0 0 0 0 0 127 0" result="hardAlpha"/>
<feOffset dx="4" dy="4"/>
<feGaussianBlur stdDeviation="6"/>
<feComposite in2="hardAlpha" operator="out"/>
<feColorMatrix type="matrix" values="0 0 0 0 0.378958 0 0 0 0 0.0460417 0 0 0 0 0.0460417 0 0 0 1 0"/>
<feBlend mode="normal" in2="BackgroundImageFix" result="effect1_dropShadow_3189_109"/>
<feBlend mode="normal" in="SourceGraphic" in2="effect1_dropShadow_3189_109" result="shape"/>
</filter>
<radialGradient id="paint0_radial_3189_109" cx="0" cy="0" r="1" gradientUnits="userSpaceOnUse" gradientTransform="translate(100 5) rotate(90) scale(190 165.221)">
<stop stop-color="#FDFDF0"/>
<stop offset="0.5" stop-color="#E2C59F"/>
<stop offset="0.918359" stop-color="#DDA071"/>
<stop offset="1" stop-color="#F8D197"/>
</radialGradient>
<radialGradient id="paint1_radial_3189_109" cx="0" cy="0" r="1" gradientUnits="userSpaceOnUse" gradientTransform="translate(49.0531 45.3474) rotate(59.7176) scale(146.958)">
<stop stop-color="#F92821"/>
<stop offset="1" stop-color="#D90B0F"/>
</radialGradient>
<linearGradient id="paint2_linear_3189_109" x1="100" y1="12" x2="100" y2="188" gradientUnits="userSpaceOnUse">
<stop stop-color="#F8D8B1"/>
<stop offset="1" stop-color="#E6A330"/>
</linearGradient>
<linearGradient id="paint3_linear_3189_109" x1="54.202" y1="43.1681" x2="121.208" y2="99.3795" gradientUnits="userSpaceOnUse">
<stop stop-color="#F3EAD6"/>
<stop offset="0.149674" stop-color="#FBE0B3"/>
<stop offset="0.672372" stop-color="#FBE0B3"/>
<stop offset="1" stop-color="#FDECD5"/>
</linearGradient>
</defs>
</svg>
