<svg width="200" height="200" viewBox="0 0 200 200" fill="none" xmlns="http://www.w3.org/2000/svg">
<circle cx="100.002" cy="100" r="95" fill="url(#paint0_radial_3189_138)"/>
<circle cx="100.001" cy="100" r="87.53" fill="url(#paint1_radial_3189_138)" stroke="url(#paint2_linear_3189_138)" stroke-width="0.94"/>
<g filter="url(#filter0_d_3189_138)">
<path d="M99.7284 157.734C73.0682 157.734 56.2518 138.047 56.2518 105.439C56.2518 72.627 73.2733 53.5547 99.7284 53.5547C126.183 53.5547 143.137 72.5586 143.137 105.371C143.137 137.91 126.389 157.734 99.7284 157.734ZM99.7284 135.449C107.795 135.449 113.605 125.742 113.605 105.439C113.605 85.0684 107.795 75.8398 99.7284 75.8398C91.662 75.8398 85.7831 85.0684 85.7831 105.439C85.7831 125.742 91.662 135.449 99.7284 135.449Z" fill="white"/>
</g>
<path d="M16.2094 187.563L9.70012 151.258C9.06297 147.704 11.4152 144.324 14.9679 143.782C32.0554 141.174 64.2703 137.47 97.0365 137.47C130.199 137.47 166.33 141.264 185.689 143.877C189.37 144.374 191.841 147.883 191.143 151.545C189.537 159.979 187.134 173.078 184.613 188.069C184.018 191.606 180.687 194.016 177.131 193.503C106.251 183.289 50.0147 188.123 24.2769 192.973C20.5436 193.676 16.8746 191.273 16.2094 187.563Z" fill="url(#paint3_linear_3189_138)" stroke="url(#paint4_linear_3189_138)" stroke-width="0.94"/>
<g filter="url(#filter1_d_3189_138)">
<mask id="path-5-outside-1_3189_138" maskUnits="userSpaceOnUse" x="25.002" y="145.352" width="151" height="31" fill="black">
<rect fill="white" x="25.002" y="145.352" width="151" height="31"/>
<path d="M26.542 174.352V170.689L34.0273 164.112C36.6787 161.769 37.1914 160.802 37.1914 159.483V159.454C37.1914 157.96 36.0342 156.891 34.3789 156.891C32.4746 156.891 31.2588 158.106 31.1709 159.806L31.1562 159.967H26.2344V159.835C26.2344 155.689 29.6035 152.833 34.3643 152.833C39.1689 152.833 42.3916 155.396 42.3916 159.146V159.176C42.3916 161.871 41.0879 163.497 37.5869 166.529L33.4561 170.045V170.221H42.6553V174.352H26.542ZM55.1357 174.352V170.748H44.6914V166.368L52.748 153.214H60.2188V166.573H62.8994V170.748H60.2188V174.352H55.1357ZM49.1885 166.764H55.2822V156.92H55.165L49.1885 166.617V166.764ZM76.1123 174.352V157.535H70.2822V153.214H87.3037V157.535H81.4736V174.352H76.1123ZM89.5742 174.352V153.214H94.9502V161.52H103.373V153.214H108.734V174.352H103.373V165.841H94.9502V174.352H89.5742ZM122.475 151.456H119.149L121.801 146.3H126.151L122.475 151.456ZM110.785 174.352L117.904 153.214H124.481L131.601 174.352H125.961L124.643 169.708H117.743L116.425 174.352H110.785ZM121.142 157.813L118.856 165.841H123.529L121.244 157.813H121.142ZM133.637 174.352V153.214H138.192L146.645 165.416H146.747V153.214H152.108V174.352H147.597L139.101 162.018H138.998V174.352H133.637ZM165.175 174.732C158.656 174.732 154.73 170.704 154.73 163.746V163.731C154.73 156.876 158.671 152.833 165.043 152.833C170.229 152.833 173.964 155.88 174.521 159.981L174.55 160.157H169.232L169.188 160.011C168.632 158.297 167.123 157.286 165.058 157.286C162.011 157.286 160.209 159.571 160.209 163.673V163.688C160.209 167.877 162.201 170.279 165.292 170.279C167.724 170.279 169.394 168.961 169.569 166.837L169.584 166.573H165.351V162.765H174.77V165.416C174.77 171.202 171.195 174.732 165.175 174.732Z"/>
</mask>
<path d="M26.542 174.352V170.689L34.0273 164.112C36.6787 161.769 37.1914 160.802 37.1914 159.483V159.454C37.1914 157.96 36.0342 156.891 34.3789 156.891C32.4746 156.891 31.2588 158.106 31.1709 159.806L31.1562 159.967H26.2344V159.835C26.2344 155.689 29.6035 152.833 34.3643 152.833C39.1689 152.833 42.3916 155.396 42.3916 159.146V159.176C42.3916 161.871 41.0879 163.497 37.5869 166.529L33.4561 170.045V170.221H42.6553V174.352H26.542ZM55.1357 174.352V170.748H44.6914V166.368L52.748 153.214H60.2188V166.573H62.8994V170.748H60.2188V174.352H55.1357ZM49.1885 166.764H55.2822V156.92H55.165L49.1885 166.617V166.764ZM76.1123 174.352V157.535H70.2822V153.214H87.3037V157.535H81.4736V174.352H76.1123ZM89.5742 174.352V153.214H94.9502V161.52H103.373V153.214H108.734V174.352H103.373V165.841H94.9502V174.352H89.5742ZM122.475 151.456H119.149L121.801 146.3H126.151L122.475 151.456ZM110.785 174.352L117.904 153.214H124.481L131.601 174.352H125.961L124.643 169.708H117.743L116.425 174.352H110.785ZM121.142 157.813L118.856 165.841H123.529L121.244 157.813H121.142ZM133.637 174.352V153.214H138.192L146.645 165.416H146.747V153.214H152.108V174.352H147.597L139.101 162.018H138.998V174.352H133.637ZM165.175 174.732C158.656 174.732 154.73 170.704 154.73 163.746V163.731C154.73 156.876 158.671 152.833 165.043 152.833C170.229 152.833 173.964 155.88 174.521 159.981L174.55 160.157H169.232L169.188 160.011C168.632 158.297 167.123 157.286 165.058 157.286C162.011 157.286 160.209 159.571 160.209 163.673V163.688C160.209 167.877 162.201 170.279 165.292 170.279C167.724 170.279 169.394 168.961 169.569 166.837L169.584 166.573H165.351V162.765H174.77V165.416C174.77 171.202 171.195 174.732 165.175 174.732Z" fill="white"/>
<path d="M26.542 174.352H25.742C25.742 174.793 26.1002 175.152 26.542 175.152V174.352ZM26.542 170.689L26.0139 170.088C25.8411 170.24 25.742 170.459 25.742 170.689H26.542ZM34.0273 164.112L34.5554 164.713L34.5572 164.712L34.0273 164.112ZM31.1709 159.806L31.9676 159.878C31.9686 159.868 31.9693 159.857 31.9698 159.847L31.1709 159.806ZM31.1562 159.967V160.767C31.57 160.767 31.9155 160.451 31.953 160.039L31.1562 159.967ZM26.2344 159.967H25.4344C25.4344 160.409 25.7925 160.767 26.2344 160.767V159.967ZM37.5869 166.529L38.1054 167.139L38.1107 167.134L37.5869 166.529ZM33.4561 170.045L32.9376 169.436C32.759 169.588 32.6561 169.81 32.6561 170.045H33.4561ZM33.4561 170.221H32.6561C32.6561 170.663 33.0142 171.021 33.4561 171.021V170.221ZM42.6553 170.221H43.4553C43.4553 169.779 43.0971 169.421 42.6553 169.421V170.221ZM42.6553 174.352V175.152C43.0971 175.152 43.4553 174.793 43.4553 174.352H42.6553ZM27.342 174.352V170.689H25.742V174.352H27.342ZM27.07 171.29L34.5554 164.713L33.4993 163.511L26.0139 170.088L27.07 171.29ZM34.5572 164.712C35.8902 163.533 36.7504 162.647 37.2722 161.853C37.8247 161.012 37.9914 160.285 37.9914 159.483H36.3914C36.3914 160 36.3018 160.416 35.9351 160.974C35.5377 161.579 34.8159 162.347 33.4975 163.513L34.5572 164.712ZM37.9914 159.483V159.454H36.3914V159.483H37.9914ZM37.9914 159.454C37.9914 158.49 37.6132 157.632 36.946 157.022C36.2834 156.416 35.3793 156.091 34.3789 156.091V157.691C35.0338 157.691 35.536 157.9 35.8658 158.202C36.191 158.5 36.3914 158.924 36.3914 159.454H37.9914ZM34.3789 156.091C33.2525 156.091 32.2684 156.453 31.5478 157.126C30.8274 157.799 30.4255 158.73 30.372 159.764L31.9698 159.847C32.0042 159.182 32.2541 158.656 32.6397 158.296C33.025 157.936 33.6011 157.691 34.3789 157.691V156.091ZM30.3742 159.733L30.3595 159.894L31.953 160.039L31.9676 159.878L30.3742 159.733ZM31.1562 159.167H26.2344V160.767H31.1562V159.167ZM27.0344 159.967V159.835H25.4344V159.967H27.0344ZM27.0344 159.835C27.0344 157.995 27.7755 156.466 29.0347 155.387C30.3032 154.299 32.1408 153.633 34.3643 153.633V152.033C31.827 152.033 29.5997 152.795 27.9933 154.172C26.3778 155.557 25.4344 157.53 25.4344 159.835H27.0344ZM34.3643 153.633C36.6312 153.633 38.4503 154.238 39.6841 155.212C40.9031 156.173 41.5916 157.523 41.5916 159.146H43.1916C43.1916 157.02 42.2688 155.213 40.6752 153.955C39.0965 152.71 36.902 152.033 34.3643 152.033V153.633ZM41.5916 159.146V159.176H43.1916V159.146H41.5916ZM41.5916 159.176C41.5916 160.365 41.3127 161.288 40.6407 162.276C39.9417 163.304 38.8131 164.409 37.0632 165.925L38.1107 167.134C39.8617 165.617 41.1355 164.393 41.9636 163.176C42.8187 161.919 43.1916 160.682 43.1916 159.176H41.5916ZM37.0684 165.92L32.9376 169.436L33.9745 170.654L38.1054 167.139L37.0684 165.92ZM32.6561 170.045V170.221H34.2561V170.045H32.6561ZM33.4561 171.021H42.6553V169.421H33.4561V171.021ZM41.8553 170.221V174.352H43.4553V170.221H41.8553ZM42.6553 173.552H26.542V175.152H42.6553V173.552ZM55.1357 174.352H54.3357C54.3357 174.793 54.6939 175.152 55.1357 175.152V174.352ZM55.1357 170.748H55.9357C55.9357 170.306 55.5776 169.948 55.1357 169.948V170.748ZM44.6914 170.748H43.8914C43.8914 171.19 44.2496 171.548 44.6914 171.548V170.748ZM44.6914 166.368L44.0092 165.95C43.9322 166.076 43.8914 166.221 43.8914 166.368H44.6914ZM52.748 153.214V152.414C52.4696 152.414 52.2112 152.559 52.0658 152.796L52.748 153.214ZM60.2188 153.214H61.0187C61.0187 152.772 60.6606 152.414 60.2188 152.414V153.214ZM60.2188 166.573H59.4188C59.4188 167.015 59.7769 167.373 60.2188 167.373V166.573ZM62.8994 166.573H63.6994C63.6994 166.131 63.3412 165.773 62.8994 165.773V166.573ZM62.8994 170.748V171.548C63.3412 171.548 63.6994 171.19 63.6994 170.748H62.8994ZM60.2188 170.748V169.948C59.7769 169.948 59.4188 170.306 59.4188 170.748H60.2188ZM60.2188 174.352V175.152C60.6606 175.152 61.0187 174.793 61.0187 174.352H60.2188ZM49.1885 166.764H48.3885C48.3885 167.205 48.7466 167.564 49.1885 167.564V166.764ZM55.2822 166.764V167.564C55.7241 167.564 56.0822 167.205 56.0822 166.764H55.2822ZM55.2822 156.92H56.0822C56.0822 156.478 55.7241 156.12 55.2822 156.12V156.92ZM55.165 156.92V156.12C54.8874 156.12 54.6297 156.264 54.484 156.5L55.165 156.92ZM49.1885 166.617L48.5074 166.197C48.4297 166.324 48.3885 166.469 48.3885 166.617H49.1885ZM55.9357 174.352V170.748H54.3357V174.352H55.9357ZM55.1357 169.948H44.6914V171.548H55.1357V169.948ZM45.4914 170.748V166.368H43.8914V170.748H45.4914ZM45.3736 166.786L53.4303 153.632L52.0658 152.796L44.0092 165.95L45.3736 166.786ZM52.748 154.014H60.2188V152.414H52.748V154.014ZM59.4188 153.214V166.573H61.0187V153.214H59.4188ZM60.2188 167.373H62.8994V165.773H60.2188V167.373ZM62.0994 166.573V170.748H63.6994V166.573H62.0994ZM62.8994 169.948H60.2188V171.548H62.8994V169.948ZM59.4188 170.748V174.352H61.0187V170.748H59.4188ZM60.2188 173.552H55.1357V175.152H60.2188V173.552ZM49.1885 167.564H55.2822V165.964H49.1885V167.564ZM56.0822 166.764V156.92H54.4822V166.764H56.0822ZM55.2822 156.12H55.165V157.72H55.2822V156.12ZM54.484 156.5L48.5074 166.197L49.8695 167.037L55.8461 157.34L54.484 156.5ZM48.3885 166.617V166.764H49.9885V166.617H48.3885ZM76.1123 174.352H75.3123C75.3123 174.793 75.6705 175.152 76.1123 175.152V174.352ZM76.1123 157.535H76.9123C76.9123 157.093 76.5541 156.735 76.1123 156.735V157.535ZM70.2822 157.535H69.4822C69.4822 157.977 69.8404 158.335 70.2822 158.335V157.535ZM70.2822 153.214V152.414C69.8404 152.414 69.4822 152.772 69.4822 153.214H70.2822ZM87.3037 153.214H88.1037C88.1037 152.772 87.7455 152.414 87.3037 152.414V153.214ZM87.3037 157.535V158.335C87.7455 158.335 88.1037 157.977 88.1037 157.535H87.3037ZM81.4736 157.535V156.735C81.0318 156.735 80.6736 157.093 80.6736 157.535H81.4736ZM81.4736 174.352V175.152C81.9155 175.152 82.2736 174.793 82.2736 174.352H81.4736ZM76.9123 174.352V157.535H75.3123V174.352H76.9123ZM76.1123 156.735H70.2822V158.335H76.1123V156.735ZM71.0822 157.535V153.214H69.4822V157.535H71.0822ZM70.2822 154.014H87.3037V152.414H70.2822V154.014ZM86.5037 153.214V157.535H88.1037V153.214H86.5037ZM87.3037 156.735H81.4736V158.335H87.3037V156.735ZM80.6736 157.535V174.352H82.2736V157.535H80.6736ZM81.4736 173.552H76.1123V175.152H81.4736V173.552ZM89.5742 174.352H88.7742C88.7742 174.793 89.1324 175.152 89.5742 175.152V174.352ZM89.5742 153.214V152.414C89.1324 152.414 88.7742 152.772 88.7742 153.214H89.5742ZM94.9502 153.214H95.7502C95.7502 152.772 95.392 152.414 94.9502 152.414V153.214ZM94.9502 161.52H94.1502C94.1502 161.961 94.5084 162.32 94.9502 162.32V161.52ZM103.373 161.52V162.32C103.815 162.32 104.173 161.961 104.173 161.52H103.373ZM103.373 153.214V152.414C102.931 152.414 102.573 152.772 102.573 153.214H103.373ZM108.734 153.214H109.534C109.534 152.772 109.176 152.414 108.734 152.414V153.214ZM108.734 174.352V175.152C109.176 175.152 109.534 174.793 109.534 174.352H108.734ZM103.373 174.352H102.573C102.573 174.793 102.931 175.152 103.373 175.152V174.352ZM103.373 165.841H104.173C104.173 165.399 103.815 165.041 103.373 165.041V165.841ZM94.9502 165.841V165.041C94.5084 165.041 94.1502 165.399 94.1502 165.841H94.9502ZM94.9502 174.352V175.152C95.392 175.152 95.7502 174.793 95.7502 174.352H94.9502ZM90.3742 174.352V153.214H88.7742V174.352H90.3742ZM89.5742 154.014H94.9502V152.414H89.5742V154.014ZM94.1502 153.214V161.52H95.7502V153.214H94.1502ZM94.9502 162.32H103.373V160.72H94.9502V162.32ZM104.173 161.52V153.214H102.573V161.52H104.173ZM103.373 154.014H108.734V152.414H103.373V154.014ZM107.934 153.214V174.352H109.534V153.214H107.934ZM108.734 173.552H103.373V175.152H108.734V173.552ZM104.173 174.352V165.841H102.573V174.352H104.173ZM103.373 165.041H94.9502V166.641H103.373V165.041ZM94.1502 165.841V174.352H95.7502V165.841H94.1502ZM94.9502 173.552H89.5742V175.152H94.9502V173.552ZM122.475 151.456V152.256C122.733 152.256 122.976 152.131 123.126 151.921L122.475 151.456ZM119.149 151.456L118.438 151.09C118.31 151.338 118.321 151.635 118.467 151.873C118.612 152.111 118.871 152.256 119.149 152.256V151.456ZM121.801 146.3V145.5C121.501 145.5 121.226 145.667 121.089 145.934L121.801 146.3ZM126.151 146.3L126.803 146.764C126.977 146.52 127 146.2 126.863 145.933C126.725 145.667 126.451 145.5 126.151 145.5V146.3ZM110.785 174.352L110.027 174.096C109.945 174.34 109.985 174.609 110.135 174.818C110.286 175.028 110.528 175.152 110.785 175.152V174.352ZM117.904 153.214V152.414C117.561 152.414 117.256 152.633 117.146 152.959L117.904 153.214ZM124.481 153.214L125.24 152.959C125.13 152.633 124.825 152.414 124.481 152.414V153.214ZM131.601 174.352V175.152C131.858 175.152 132.1 175.028 132.25 174.818C132.401 174.609 132.441 174.34 132.359 174.096L131.601 174.352ZM125.961 174.352L125.191 174.57C125.289 174.914 125.603 175.152 125.961 175.152V174.352ZM124.643 169.708L125.412 169.49C125.314 169.145 125 168.908 124.643 168.908V169.708ZM117.743 169.708V168.908C117.385 168.908 117.071 169.145 116.974 169.49L117.743 169.708ZM116.425 174.352V175.152C116.782 175.152 117.097 174.914 117.194 174.57L116.425 174.352ZM121.142 157.813V157.013C120.784 157.013 120.47 157.251 120.372 157.594L121.142 157.813ZM118.856 165.841L118.087 165.622C118.018 165.863 118.067 166.123 118.218 166.323C118.369 166.523 118.606 166.641 118.856 166.641V165.841ZM123.529 165.841V166.641C123.78 166.641 124.017 166.523 124.168 166.323C124.319 166.123 124.367 165.863 124.299 165.622L123.529 165.841ZM121.244 157.813L122.014 157.594C121.916 157.251 121.602 157.013 121.244 157.013V157.813ZM122.475 150.656H119.149V152.256H122.475V150.656ZM119.861 151.822L122.512 146.666L121.089 145.934L118.438 151.09L119.861 151.822ZM121.801 147.1H126.151V145.5H121.801V147.1ZM125.5 145.835L121.823 150.992L123.126 151.921L126.803 146.764L125.5 145.835ZM111.543 174.607L118.662 153.469L117.146 152.959L110.027 174.096L111.543 174.607ZM117.904 154.014H124.481V152.414H117.904V154.014ZM123.723 153.469L130.842 174.607L132.359 174.096L125.24 152.959L123.723 153.469ZM131.601 173.552H125.961V175.152H131.601V173.552ZM126.731 174.133L125.412 169.49L123.873 169.927L125.191 174.57L126.731 174.133ZM124.643 168.908H117.743V170.508H124.643V168.908ZM116.974 169.49L115.655 174.133L117.194 174.57L118.513 169.927L116.974 169.49ZM116.425 173.552H110.785V175.152H116.425V173.552ZM120.372 157.594L118.087 165.622L119.626 166.06L121.911 158.033L120.372 157.594ZM118.856 166.641H123.529V165.041H118.856V166.641ZM124.299 165.622L122.014 157.594L120.475 158.033L122.76 166.06L124.299 165.622ZM121.244 157.013H121.142V158.613H121.244V157.013ZM133.637 174.352H132.837C132.837 174.793 133.195 175.152 133.637 175.152V174.352ZM133.637 153.214V152.414C133.195 152.414 132.837 152.772 132.837 153.214H133.637ZM138.192 153.214L138.85 152.758C138.701 152.543 138.455 152.414 138.192 152.414V153.214ZM146.645 165.416L145.987 165.872C146.136 166.087 146.382 166.216 146.645 166.216V165.416ZM146.747 165.416V166.216C147.189 166.216 147.547 165.858 147.547 165.416H146.747ZM146.747 153.214V152.414C146.305 152.414 145.947 152.772 145.947 153.214H146.747ZM152.108 153.214H152.908C152.908 152.772 152.55 152.414 152.108 152.414V153.214ZM152.108 174.352V175.152C152.55 175.152 152.908 174.793 152.908 174.352H152.108ZM147.597 174.352L146.938 174.805C147.087 175.022 147.333 175.152 147.597 175.152V174.352ZM139.101 162.018L139.759 161.564C139.61 161.347 139.364 161.218 139.101 161.218V162.018ZM138.998 162.018V161.218C138.556 161.218 138.198 161.576 138.198 162.018H138.998ZM138.998 174.352V175.152C139.44 175.152 139.798 174.793 139.798 174.352H138.998ZM134.437 174.352V153.214H132.837V174.352H134.437ZM133.637 154.014H138.192V152.414H133.637V154.014ZM137.535 153.669L145.987 165.872L147.302 164.96L138.85 152.758L137.535 153.669ZM146.645 166.216H146.747V164.616H146.645V166.216ZM147.547 165.416V153.214H145.947V165.416H147.547ZM146.747 154.014H152.108V152.414H146.747V154.014ZM151.308 153.214V174.352H152.908V153.214H151.308ZM152.108 173.552H147.597V175.152H152.108V173.552ZM148.256 173.898L139.759 161.564L138.442 162.471L146.938 174.805L148.256 173.898ZM139.101 161.218H138.998V162.818H139.101V161.218ZM138.198 162.018V174.352H139.798V162.018H138.198ZM138.998 173.552H133.637V175.152H138.998V173.552ZM174.521 159.981L173.728 160.089C173.729 160.097 173.73 160.105 173.731 160.113L174.521 159.981ZM174.55 160.157V160.957C174.785 160.957 175.008 160.854 175.16 160.674C175.312 160.495 175.378 160.258 175.339 160.026L174.55 160.157ZM169.232 160.157L168.466 160.387C168.568 160.725 168.879 160.957 169.232 160.957V160.157ZM169.188 160.011L169.955 159.781C169.953 159.775 169.951 159.769 169.949 159.764L169.188 160.011ZM169.569 166.837L170.367 166.903C170.367 166.896 170.368 166.888 170.368 166.881L169.569 166.837ZM169.584 166.573L170.383 166.618C170.395 166.398 170.316 166.183 170.165 166.023C170.014 165.864 169.804 165.773 169.584 165.773V166.573ZM165.351 166.573H164.551C164.551 167.015 164.909 167.373 165.351 167.373V166.573ZM165.351 162.765V161.965C164.909 161.965 164.551 162.323 164.551 162.765H165.351ZM174.77 162.765H175.57C175.57 162.323 175.211 161.965 174.77 161.965V162.765ZM165.175 173.932C162.083 173.932 159.7 172.981 158.086 171.295C156.468 169.605 155.53 167.078 155.53 163.746H153.93C153.93 167.373 154.955 170.338 156.93 172.402C158.909 174.469 161.748 175.532 165.175 175.532V173.932ZM155.53 163.746V163.731H153.93V163.746H155.53ZM155.53 163.731C155.53 160.455 156.47 157.947 158.076 156.264C159.678 154.584 162.03 153.633 165.043 153.633V152.033C161.684 152.033 158.88 153.103 156.918 155.159C154.961 157.211 153.93 160.153 153.93 163.731H155.53ZM165.043 153.633C169.917 153.633 173.236 156.466 173.728 160.089L175.313 159.874C174.692 155.293 170.54 152.033 165.043 152.033V153.633ZM173.731 160.113L173.761 160.289L175.339 160.026L175.31 159.85L173.731 160.113ZM174.55 159.357H169.232V160.957H174.55V159.357ZM169.999 159.927L169.955 159.781L168.422 160.241L168.466 160.387L169.999 159.927ZM169.949 159.764C169.269 157.667 167.411 156.486 165.058 156.486V158.086C166.835 158.086 167.995 158.926 168.428 160.258L169.949 159.764ZM165.058 156.486C163.312 156.486 161.854 157.153 160.856 158.455C159.88 159.727 159.409 161.519 159.409 163.673H161.009C161.009 161.725 161.439 160.324 162.126 159.428C162.79 158.562 163.756 158.086 165.058 158.086V156.486ZM159.409 163.673V163.688H161.009V163.673H159.409ZM159.409 163.688C159.409 165.898 159.934 167.741 160.963 169.049C162.009 170.38 163.519 171.079 165.292 171.079V169.479C163.974 169.479 162.942 168.978 162.22 168.06C161.48 167.119 161.009 165.666 161.009 163.688H159.409ZM165.292 171.079C166.649 171.079 167.862 170.711 168.777 169.979C169.701 169.239 170.262 168.172 170.367 166.903L168.772 166.771C168.701 167.626 168.339 168.28 167.777 168.73C167.204 169.188 166.367 169.479 165.292 169.479V171.079ZM170.368 166.881L170.383 166.618L168.785 166.529L168.771 166.793L170.368 166.881ZM169.584 165.773H165.351V167.373H169.584V165.773ZM166.151 166.573V162.765H164.551V166.573H166.151ZM165.351 163.565H174.77V161.965H165.351V163.565ZM173.97 162.765V165.416H175.57V162.765H173.97ZM173.97 165.416C173.97 168.142 173.131 170.247 171.671 171.671C170.209 173.098 168.03 173.932 165.175 173.932V175.532C168.34 175.532 170.959 174.602 172.788 172.817C174.621 171.029 175.57 168.476 175.57 165.416H173.97Z" fill="#83200E" mask="url(#path-5-outside-1_3189_138)"/>
</g>
<mask id="path-7-outside-2_3189_138" maskUnits="userSpaceOnUse" x="128.502" y="58.9399" width="37" height="32" fill="black">
<rect fill="white" x="128.502" y="58.9399" width="37" height="32"/>
<path d="M144.17 68.8704C144.17 72.8619 141.934 75.3132 138.29 75.3132C134.646 75.3132 132.411 72.8619 132.411 68.8704C132.411 64.8789 134.646 62.4276 138.29 62.4276C141.934 62.4276 144.17 64.8789 144.17 68.8704ZM138.29 71.4707C138.986 71.4707 139.4 70.4935 139.4 68.8207C139.4 67.1479 138.986 66.1707 138.29 66.1707C137.595 66.1707 137.18 67.1479 137.18 68.8207C137.18 70.4935 137.595 71.4707 138.29 71.4707ZM140.857 86.9399H135.723L145.048 74.1372L153.13 63.0404H158.264L149.205 75.4788L140.857 86.9399ZM161.577 80.9278C161.577 84.9193 159.341 87.3706 155.697 87.3706C152.053 87.3706 149.818 84.9193 149.818 80.9278C149.818 76.9363 152.053 74.485 155.697 74.485C159.341 74.485 161.577 76.9363 161.577 80.9278ZM155.697 83.5281C156.393 83.5281 156.807 82.5509 156.807 80.8781C156.807 79.2053 156.393 78.2281 155.697 78.2281C155.002 78.2281 154.588 79.2053 154.588 80.8781C154.588 82.5509 155.002 83.5281 155.697 83.5281Z"/>
</mask>
<path d="M140.857 86.9399V89.9399C141.816 89.9399 142.718 89.4814 143.282 88.7061L140.857 86.9399ZM135.723 86.9399L133.298 85.1737C132.633 86.0861 132.537 87.2943 133.049 88.3004C133.561 89.3064 134.594 89.9399 135.723 89.9399V86.9399ZM145.048 74.1372L142.623 72.371L142.623 72.371L145.048 74.1372ZM153.13 63.0404V60.0404C152.171 60.0404 151.27 60.499 150.705 61.2742L153.13 63.0404ZM158.264 63.0404L160.689 64.8067C161.354 63.8943 161.45 62.6861 160.938 61.6801C160.426 60.674 159.393 60.0404 158.264 60.0404V63.0404ZM149.205 75.4788L146.78 73.7125L146.78 73.7126L149.205 75.4788ZM141.17 68.8704C141.17 70.3214 140.768 71.1413 140.38 71.5665C140.023 71.9585 139.409 72.3132 138.29 72.3132V78.3132C140.815 78.3132 143.141 77.4421 144.812 75.6107C146.453 73.8124 147.17 71.4109 147.17 68.8704H141.17ZM138.29 72.3132C137.171 72.3132 136.558 71.9585 136.2 71.5665C135.812 71.1413 135.411 70.3214 135.411 68.8704H129.411C129.411 71.4109 130.127 73.8124 131.768 75.6107C133.439 77.4421 135.765 78.3132 138.29 78.3132V72.3132ZM135.411 68.8704C135.411 67.4194 135.812 66.5995 136.2 66.1743C136.558 65.7822 137.171 65.4276 138.29 65.4276V59.4276C135.765 59.4276 133.439 60.2986 131.768 62.1301C130.127 63.9284 129.411 66.3299 129.411 68.8704H135.411ZM138.29 65.4276C139.409 65.4276 140.023 65.7822 140.38 66.1743C140.768 66.5995 141.17 67.4194 141.17 68.8704H147.17C147.17 66.3299 146.453 63.9284 144.812 62.1301C143.141 60.2986 140.815 59.4276 138.29 59.4276V65.4276ZM138.29 74.4707C140.387 74.4707 141.467 72.8993 141.872 71.9349C142.283 70.9547 142.4 69.8371 142.4 68.8207H136.4C136.4 69.4771 136.309 69.6845 136.34 69.6111C136.361 69.5613 136.478 69.2958 136.799 69.0193C137.168 68.7013 137.695 68.4707 138.29 68.4707V74.4707ZM142.4 68.8207C142.4 67.8043 142.283 66.6867 141.872 65.7065C141.467 64.7421 140.387 63.1707 138.29 63.1707V69.1707C137.695 69.1707 137.168 68.9402 136.799 68.6221C136.478 68.3456 136.361 68.0801 136.34 68.0303C136.309 67.9569 136.4 68.1643 136.4 68.8207H142.4ZM138.29 63.1707C136.193 63.1707 135.114 64.7421 134.709 65.7065C134.297 66.6867 134.18 67.8043 134.18 68.8207H140.18C140.18 68.1643 140.271 67.9569 140.24 68.0303C140.219 68.0801 140.103 68.3456 139.782 68.6221C139.413 68.9402 138.885 69.1707 138.29 69.1707V63.1707ZM134.18 68.8207C134.18 69.8371 134.297 70.9547 134.709 71.9349C135.114 72.8993 136.193 74.4707 138.29 74.4707V68.4707C138.885 68.4707 139.413 68.7013 139.782 69.0193C140.103 69.2958 140.219 69.5613 140.24 69.6111C140.271 69.6845 140.18 69.4771 140.18 68.8207H134.18ZM140.857 83.9399H135.723V89.9399H140.857V83.9399ZM138.148 88.7061L147.473 75.9034L142.623 72.371L133.298 85.1737L138.148 88.7061ZM147.473 75.9035L155.555 64.8067L150.705 61.2742L142.623 72.371L147.473 75.9035ZM153.13 66.0404H158.264V60.0404H153.13V66.0404ZM155.839 61.2742L146.78 73.7125L151.63 77.245L160.689 64.8067L155.839 61.2742ZM146.78 73.7126L138.432 85.1738L143.282 88.7061L151.63 77.245L146.78 73.7126ZM158.577 80.9278C158.577 82.3788 158.175 83.1987 157.787 83.6239C157.43 84.016 156.816 84.3706 155.697 84.3706V90.3706C158.222 90.3706 160.548 89.4996 162.219 87.6681C163.86 85.8698 164.577 83.4683 164.577 80.9278H158.577ZM155.697 84.3706C154.578 84.3706 153.965 84.016 153.607 83.6239C153.219 83.1987 152.818 82.3788 152.818 80.9278H146.818C146.818 83.4683 147.534 85.8698 149.175 87.6681C150.846 89.4996 153.173 90.3706 155.697 90.3706V84.3706ZM152.818 80.9278C152.818 79.4768 153.219 78.6569 153.607 78.2317C153.965 77.8396 154.578 77.485 155.697 77.485V71.485C153.173 71.485 150.846 72.356 149.175 74.1875C147.534 75.9858 146.818 78.3873 146.818 80.9278H152.818ZM155.697 77.485C156.816 77.485 157.43 77.8396 157.787 78.2317C158.175 78.6569 158.577 79.4768 158.577 80.9278H164.577C164.577 78.3873 163.86 75.9858 162.219 74.1875C160.548 72.356 158.222 71.485 155.697 71.485V77.485ZM155.697 86.5281C157.794 86.5281 158.874 84.9568 159.279 83.9923C159.691 83.0121 159.807 81.8945 159.807 80.8781H153.807C153.807 81.5345 153.716 81.7419 153.747 81.6685C153.768 81.6187 153.885 81.3532 154.206 81.0767C154.575 80.7587 155.103 80.5281 155.697 80.5281V86.5281ZM159.807 80.8781C159.807 79.8617 159.691 78.7442 159.279 77.7639C158.874 76.7995 157.794 75.2281 155.697 75.2281V81.2281C155.103 81.2281 154.575 80.9976 154.206 80.6796C153.885 80.4031 153.768 80.1375 153.747 80.0877C153.716 80.0143 153.807 80.2217 153.807 80.8781H159.807ZM155.697 75.2281C153.6 75.2281 152.521 76.7995 152.116 77.7639C151.704 78.7442 151.588 79.8617 151.588 80.8781H157.588C157.588 80.2217 157.678 80.0143 157.647 80.0877C157.626 80.1375 157.51 80.4031 157.189 80.6796C156.82 80.9976 156.292 81.2281 155.697 81.2281V75.2281ZM151.588 80.8781C151.588 81.8945 151.704 83.0121 152.116 83.9923C152.521 84.9568 153.6 86.5281 155.697 86.5281V80.5281C156.292 80.5281 156.82 80.7587 157.189 81.0767C157.51 81.3532 157.626 81.6187 157.647 81.6685C157.678 81.7419 157.588 81.5345 157.588 80.8781H151.588Z" fill="#EA1A19" mask="url(#path-7-outside-2_3189_138)"/>
<g filter="url(#filter2_d_3189_138)">
<path d="M144.17 68.8704C144.17 72.8619 141.934 75.3132 138.29 75.3132C134.646 75.3132 132.411 72.8619 132.411 68.8704C132.411 64.8789 134.646 62.4276 138.29 62.4276C141.934 62.4276 144.17 64.8789 144.17 68.8704ZM138.29 71.4707C138.986 71.4707 139.4 70.4935 139.4 68.8207C139.4 67.1479 138.986 66.1707 138.29 66.1707C137.595 66.1707 137.18 67.1479 137.18 68.8207C137.18 70.4935 137.595 71.4707 138.29 71.4707ZM140.857 86.9399H135.723L145.048 74.1372L153.13 63.0404H158.264L149.205 75.4788L140.857 86.9399ZM161.577 80.9278C161.577 84.9193 159.341 87.3706 155.697 87.3706C152.053 87.3706 149.818 84.9193 149.818 80.9278C149.818 76.9363 152.053 74.485 155.697 74.485C159.341 74.485 161.577 76.9363 161.577 80.9278ZM155.697 83.5281C156.393 83.5281 156.807 82.5509 156.807 80.8781C156.807 79.2053 156.393 78.2281 155.697 78.2281C155.002 78.2281 154.588 79.2053 154.588 80.8781C154.588 82.5509 155.002 83.5281 155.697 83.5281Z" fill="white"/>
</g>
<g filter="url(#filter3_d_3189_138)">
<path d="M43.2914 104.75L29.6809 103.015L28.9938 108.404L25.0585 107.902L27.0623 92.1864L30.9975 92.6881L30.3136 98.0522L43.9242 99.7875L43.2914 104.75Z" fill="white"/>
</g>
<g filter="url(#filter4_d_3189_138)">
<path d="M44.8422 93.5874L28.17 87.6798L30.8707 80.0582C31.4108 78.5339 32.1211 77.3112 33.0015 76.39C33.8876 75.4529 34.9059 74.8487 36.0565 74.5772C37.1913 74.3002 38.3938 74.3867 39.664 74.8368C40.9184 75.2813 41.8992 75.9684 42.6063 76.8981C43.2976 77.8222 43.6924 78.9271 43.7908 80.213C43.8789 81.4774 43.6529 82.8718 43.1128 84.3961L41.3405 89.3977L40.1064 86.6013L46.5132 88.8715L44.8422 93.5874ZM48.4965 83.2744L40.9546 85.2666L42.7353 80.2412L50.2856 78.2252L48.4965 83.2744ZM40.6065 86.7786L37.6965 88.1065L39.3675 83.3907C39.7163 82.4062 39.7607 81.5999 39.5008 80.9716C39.2465 80.3275 38.7383 79.8704 37.9761 79.6003C37.1981 79.3246 36.5075 79.3569 35.9044 79.6973C35.3069 80.0217 34.8337 80.6761 34.4849 81.6606L32.8139 86.3764L31.3892 83.5125L40.6065 86.7786Z" fill="white"/>
</g>
<g filter="url(#filter5_d_3189_138)">
<path d="M49.6418 79.1761L38.9885 63.0414L41.6538 58.8971L60.7677 61.8765L57.9521 66.2545L41.829 63.1558L42.8952 61.4981L52.4028 74.8831L49.6418 79.1761ZM49.0614 73.7256L46.6556 70.6461L51.3301 63.3777L55.1301 64.2894L49.0614 73.7256ZM39.8211 59.5511L37.7957 59.991C37.8616 59.4525 37.8409 59.0487 37.7337 58.7794C37.6123 58.5011 37.4453 58.2935 37.2328 58.1569C36.9636 57.9837 36.6989 57.9437 36.4388 58.0368C36.1736 58.1066 35.9499 58.2831 35.7676 58.5665C35.5034 58.9774 35.3808 59.4794 35.3999 60.0725L33.2942 59.8899C33.2578 59.3859 33.3171 58.8732 33.4721 58.352C33.6129 57.8216 33.8291 57.3298 34.1207 56.8764C34.6492 56.0546 35.3041 55.5345 36.0856 55.316C36.8761 55.0834 37.6327 55.1994 38.3553 55.6641C39.007 56.0833 39.4457 56.6158 39.6713 57.2616C39.8968 57.9074 39.9468 58.6705 39.8211 59.5511Z" fill="white"/>
</g>
<g filter="url(#filter6_d_3189_138)">
<path d="M72.4462 52.0876C71.3608 52.9691 70.2159 53.6168 69.0113 54.0308C67.7961 54.4317 66.5884 54.5879 65.388 54.4993C64.2008 54.4002 63.0671 54.0731 61.9869 53.518C60.8962 52.9498 59.9261 52.1426 59.0765 51.0965C58.2269 50.0504 57.6413 48.9418 57.3196 47.7708C56.9873 46.5867 56.901 45.3981 57.0606 44.2052C57.2203 43.0122 57.6262 41.8687 58.2786 40.7747C58.9334 39.657 59.8165 38.6469 60.928 37.7442C62.2226 36.6929 63.5551 35.9688 64.9256 35.572C66.296 35.1752 67.6439 35.1114 68.9692 35.3805L68.3136 39.6237C67.4287 39.4961 66.6108 39.531 65.8598 39.7286C65.1112 39.9024 64.4035 40.2602 63.7366 40.8018C63.1482 41.2796 62.6864 41.8066 62.3512 42.3826C62.016 42.9586 61.8218 43.5612 61.7686 44.1904C61.7047 44.8065 61.7711 45.4361 61.9679 46.0792C62.1671 46.6986 62.511 47.3091 62.9995 47.9106C63.4668 48.486 63.9884 48.9413 64.5644 49.2764C65.1535 49.601 65.7614 49.8017 66.3881 49.8787C67.0042 49.9426 67.6273 49.8814 68.2573 49.6953C68.8898 49.4854 69.4938 49.1469 70.0691 48.6796C70.6445 48.2124 71.1325 47.6642 71.533 47.0351C71.9229 46.3929 72.2132 45.6147 72.4038 44.7003L76.7953 45.6587C76.4673 46.8581 75.9089 48.0277 75.1201 49.1674C74.3313 50.3071 73.44 51.2805 72.4462 52.0876ZM72.9485 47.9363L68.7431 42.758L72.1757 39.9703L76.7953 45.6587L72.9485 47.9363Z" fill="white"/>
</g>
<g filter="url(#filter7_d_3189_138)">
<path d="M87.5936 42.7716C86.3112 43.3699 85.032 43.7158 83.7558 43.8093C82.4796 43.9028 81.2625 43.7643 80.1044 43.3938C78.9545 43.0009 77.9231 42.4039 77.0103 41.6029C76.0975 40.802 75.3598 39.7985 74.7971 38.5925C74.2344 37.3865 73.9394 36.1764 73.912 34.9623C73.8846 33.7482 74.0933 32.582 74.5381 31.4636C74.9911 30.3228 75.6634 29.2935 76.5549 28.3756C77.4465 27.4577 78.5334 26.6996 79.8158 26.1013C81.1133 25.4959 82.3926 25.15 83.6535 25.0636C84.9297 24.9701 86.1428 25.1198 87.2927 25.5127C88.4355 25.8904 89.4633 26.4797 90.3761 27.2807C91.3042 28.0745 92.0496 29.0745 92.6122 30.2805C93.1749 31.4865 93.4659 32.7077 93.4851 33.9442C93.5125 35.1583 93.3038 36.3245 92.859 37.4429C92.4142 38.5613 91.746 39.5794 90.8544 40.4973C89.9781 41.4081 88.8912 42.1662 87.5936 42.7716ZM85.8414 39.0162C86.4521 38.7313 86.967 38.3609 87.3864 37.905C87.8209 37.442 88.1365 36.923 88.3329 36.348C88.5375 35.7507 88.6149 35.1197 88.5651 34.4552C88.5306 33.7835 88.353 33.1042 88.0325 32.4172C87.7049 31.715 87.2984 31.1425 86.813 30.6998C86.3357 30.2347 85.806 29.8962 85.2239 29.6845C84.65 29.4504 84.046 29.3511 83.412 29.3867C82.7932 29.4152 82.1785 29.5718 81.5679 29.8567C80.9573 30.1416 80.4347 30.5156 80.0001 30.9786C79.5808 31.4345 79.2688 31.9611 79.0642 32.5585C78.8677 33.1334 78.7868 33.7568 78.8213 34.4284C78.864 35.0777 79.0492 35.7535 79.3768 36.4557C79.6973 37.1427 80.0962 37.7187 80.5735 38.1838C81.066 38.6418 81.5992 38.9879 82.1732 39.222C82.7553 39.4337 83.3557 39.5253 83.9745 39.4969C84.6085 39.4613 85.2308 39.3011 85.8414 39.0162ZM77.1123 26.1637L78.5568 21.2515L82.9075 19.2216L80.2265 24.7107L77.1123 26.1637Z" fill="white"/>
</g>
<g filter="url(#filter8_d_3189_138)">
<path d="M97.4117 38.2599L93.9641 20.9113L101.895 19.3352C103.481 19.02 104.895 19.0052 106.137 19.2908C107.395 19.5732 108.435 20.1394 109.257 20.9895C110.075 21.823 110.616 22.9007 110.878 24.2225C111.138 25.5277 111.049 26.7219 110.611 27.805C110.174 28.8881 109.429 29.8089 108.378 30.5675C107.34 31.3062 106.027 31.8332 104.441 32.1484L99.2366 33.1827L100.994 30.6179L102.319 37.2847L97.4117 38.2599ZM101.097 31.1383L98.4683 29.3164L103.376 28.3412C104.4 28.1377 105.116 27.7636 105.523 27.219C105.946 26.6711 106.079 26.0006 105.922 25.2075C105.761 24.3979 105.38 23.8209 104.779 23.4766C104.195 23.129 103.39 23.057 102.366 23.2606L97.4587 24.2358L99.1914 21.547L101.097 31.1383Z" fill="white"/>
</g>
<defs>
<filter id="filter0_d_3189_138" x="48.2518" y="45.5547" width="110.885" height="128.18" filterUnits="userSpaceOnUse" color-interpolation-filters="sRGB">
<feFlood flood-opacity="0" result="BackgroundImageFix"/>
<feColorMatrix in="SourceAlpha" type="matrix" values="0 0 0 0 0 0 0 0 0 0 0 0 0 0 0 0 0 0 127 0" result="hardAlpha"/>
<feOffset dx="4" dy="4"/>
<feGaussianBlur stdDeviation="6"/>
<feComposite in2="hardAlpha" operator="out"/>
<feColorMatrix type="matrix" values="0 0 0 0 0 0 0 0 0 0 0 0 0 0 0 0 0 0 1 0"/>
<feBlend mode="normal" in2="BackgroundImageFix" result="effect1_dropShadow_3189_138"/>
<feBlend mode="normal" in="SourceGraphic" in2="effect1_dropShadow_3189_138" result="shape"/>
</filter>
<filter id="filter1_d_3189_138" x="18.2344" y="138.3" width="172.535" height="52.4326" filterUnits="userSpaceOnUse" color-interpolation-filters="sRGB">
<feFlood flood-opacity="0" result="BackgroundImageFix"/>
<feColorMatrix in="SourceAlpha" type="matrix" values="0 0 0 0 0 0 0 0 0 0 0 0 0 0 0 0 0 0 127 0" result="hardAlpha"/>
<feOffset dx="4" dy="4"/>
<feGaussianBlur stdDeviation="6"/>
<feComposite in2="hardAlpha" operator="out"/>
<feColorMatrix type="matrix" values="0 0 0 0 0 0 0 0 0 0 0 0 0 0 0 0 0 0 0.6 0"/>
<feBlend mode="normal" in2="BackgroundImageFix" result="effect1_dropShadow_3189_138"/>
<feBlend mode="normal" in="SourceGraphic" in2="effect1_dropShadow_3189_138" result="shape"/>
</filter>
<filter id="filter2_d_3189_138" x="123.365" y="53.3823" width="56.3022" height="52.0788" filterUnits="userSpaceOnUse" color-interpolation-filters="sRGB">
<feFlood flood-opacity="0" result="BackgroundImageFix"/>
<feColorMatrix in="SourceAlpha" type="matrix" values="0 0 0 0 0 0 0 0 0 0 0 0 0 0 0 0 0 0 127 0" result="hardAlpha"/>
<feOffset dx="4.52263" dy="4.52263"/>
<feGaussianBlur stdDeviation="6.78395"/>
<feComposite in2="hardAlpha" operator="out"/>
<feColorMatrix type="matrix" values="0 0 0 0 0 0 0 0 0 0 0 0 0 0 0 0 0 0 1 0"/>
<feBlend mode="normal" in2="BackgroundImageFix" result="effect1_dropShadow_3189_138"/>
<feBlend mode="normal" in="SourceGraphic" in2="effect1_dropShadow_3189_138" result="shape"/>
</filter>
<filter id="filter3_d_3189_138" x="14.6976" y="81.8256" width="49.9483" height="47.3003" filterUnits="userSpaceOnUse" color-interpolation-filters="sRGB">
<feFlood flood-opacity="0" result="BackgroundImageFix"/>
<feColorMatrix in="SourceAlpha" type="matrix" values="0 0 0 0 0 0 0 0 0 0 0 0 0 0 0 0 0 0 127 0" result="hardAlpha"/>
<feOffset dx="5.18043" dy="5.18043"/>
<feGaussianBlur stdDeviation="7.77064"/>
<feComposite in2="hardAlpha" operator="out"/>
<feColorMatrix type="matrix" values="0 0 0 0 0 0 0 0 0 0 0 0 0 0 0 0 0 0 1 0"/>
<feBlend mode="normal" in2="BackgroundImageFix" result="effect1_dropShadow_3189_138"/>
<feBlend mode="normal" in="SourceGraphic" in2="effect1_dropShadow_3189_138" result="shape"/>
</filter>
<filter id="filter4_d_3189_138" x="17.8092" y="64.0581" width="53.1982" height="50.251" filterUnits="userSpaceOnUse" color-interpolation-filters="sRGB">
<feFlood flood-opacity="0" result="BackgroundImageFix"/>
<feColorMatrix in="SourceAlpha" type="matrix" values="0 0 0 0 0 0 0 0 0 0 0 0 0 0 0 0 0 0 127 0" result="hardAlpha"/>
<feOffset dx="5.18043" dy="5.18043"/>
<feGaussianBlur stdDeviation="7.77064"/>
<feComposite in2="hardAlpha" operator="out"/>
<feColorMatrix type="matrix" values="0 0 0 0 0 0 0 0 0 0 0 0 0 0 0 0 0 0 1 0"/>
<feBlend mode="normal" in2="BackgroundImageFix" result="effect1_dropShadow_3189_138"/>
<feBlend mode="normal" in="SourceGraphic" in2="effect1_dropShadow_3189_138" result="shape"/>
</filter>
<filter id="filter5_d_3189_138" x="22.923" y="44.8387" width="58.5664" height="55.0591" filterUnits="userSpaceOnUse" color-interpolation-filters="sRGB">
<feFlood flood-opacity="0" result="BackgroundImageFix"/>
<feColorMatrix in="SourceAlpha" type="matrix" values="0 0 0 0 0 0 0 0 0 0 0 0 0 0 0 0 0 0 127 0" result="hardAlpha"/>
<feOffset dx="5.18043" dy="5.18043"/>
<feGaussianBlur stdDeviation="7.77064"/>
<feComposite in2="hardAlpha" operator="out"/>
<feColorMatrix type="matrix" values="0 0 0 0 0 0 0 0 0 0 0 0 0 0 0 0 0 0 1 0"/>
<feBlend mode="normal" in2="BackgroundImageFix" result="effect1_dropShadow_3189_138"/>
<feBlend mode="normal" in="SourceGraphic" in2="effect1_dropShadow_3189_138" result="shape"/>
</filter>
<filter id="filter6_d_3189_138" x="46.6221" y="24.8566" width="50.8949" height="50.3885" filterUnits="userSpaceOnUse" color-interpolation-filters="sRGB">
<feFlood flood-opacity="0" result="BackgroundImageFix"/>
<feColorMatrix in="SourceAlpha" type="matrix" values="0 0 0 0 0 0 0 0 0 0 0 0 0 0 0 0 0 0 127 0" result="hardAlpha"/>
<feOffset dx="5.18043" dy="5.18043"/>
<feGaussianBlur stdDeviation="7.77064"/>
<feComposite in2="hardAlpha" operator="out"/>
<feColorMatrix type="matrix" values="0 0 0 0 0 0 0 0 0 0 0 0 0 0 0 0 0 0 1 0"/>
<feBlend mode="normal" in2="BackgroundImageFix" result="effect1_dropShadow_3189_138"/>
<feBlend mode="normal" in="SourceGraphic" in2="effect1_dropShadow_3189_138" result="shape"/>
</filter>
<filter id="filter7_d_3189_138" x="63.5488" y="8.86071" width="50.6604" height="55.6985" filterUnits="userSpaceOnUse" color-interpolation-filters="sRGB">
<feFlood flood-opacity="0" result="BackgroundImageFix"/>
<feColorMatrix in="SourceAlpha" type="matrix" values="0 0 0 0 0 0 0 0 0 0 0 0 0 0 0 0 0 0 127 0" result="hardAlpha"/>
<feOffset dx="5.18043" dy="5.18043"/>
<feGaussianBlur stdDeviation="7.77064"/>
<feComposite in2="hardAlpha" operator="out"/>
<feColorMatrix type="matrix" values="0 0 0 0 0 0 0 0 0 0 0 0 0 0 0 0 0 0 1 0"/>
<feBlend mode="normal" in2="BackgroundImageFix" result="effect1_dropShadow_3189_138"/>
<feBlend mode="normal" in="SourceGraphic" in2="effect1_dropShadow_3189_138" result="shape"/>
</filter>
<filter id="filter8_d_3189_138" x="83.6033" y="8.72631" width="48.1416" height="50.2553" filterUnits="userSpaceOnUse" color-interpolation-filters="sRGB">
<feFlood flood-opacity="0" result="BackgroundImageFix"/>
<feColorMatrix in="SourceAlpha" type="matrix" values="0 0 0 0 0 0 0 0 0 0 0 0 0 0 0 0 0 0 127 0" result="hardAlpha"/>
<feOffset dx="5.18043" dy="5.18043"/>
<feGaussianBlur stdDeviation="7.77064"/>
<feComposite in2="hardAlpha" operator="out"/>
<feColorMatrix type="matrix" values="0 0 0 0 0 0 0 0 0 0 0 0 0 0 0 0 0 0 1 0"/>
<feBlend mode="normal" in2="BackgroundImageFix" result="effect1_dropShadow_3189_138"/>
<feBlend mode="normal" in="SourceGraphic" in2="effect1_dropShadow_3189_138" result="shape"/>
</filter>
<radialGradient id="paint0_radial_3189_138" cx="0" cy="0" r="1" gradientUnits="userSpaceOnUse" gradientTransform="translate(100.002 5) rotate(90) scale(190 165.221)">
<stop stop-color="#FDFDF0"/>
<stop offset="0.5" stop-color="#E2C59F"/>
<stop offset="0.918359" stop-color="#DDA071"/>
<stop offset="1" stop-color="#F8D197"/>
</radialGradient>
<radialGradient id="paint1_radial_3189_138" cx="0" cy="0" r="1" gradientUnits="userSpaceOnUse" gradientTransform="translate(49.0541 45.3474) rotate(59.7176) scale(146.958)">
<stop stop-color="#F92821"/>
<stop offset="1" stop-color="#D90B0F"/>
</radialGradient>
<linearGradient id="paint2_linear_3189_138" x1="100.001" y1="12" x2="100.001" y2="188" gradientUnits="userSpaceOnUse">
<stop stop-color="#F8D8B1"/>
<stop offset="1" stop-color="#E6A330"/>
</linearGradient>
<linearGradient id="paint3_linear_3189_138" x1="100.502" y1="137" x2="100.502" y2="200.721" gradientUnits="userSpaceOnUse">
<stop stop-color="#151316"/>
<stop offset="1" stop-color="#161314"/>
</linearGradient>
<linearGradient id="paint4_linear_3189_138" x1="100.502" y1="137" x2="100.502" y2="195" gradientUnits="userSpaceOnUse">
<stop stop-color="#F8D8B1"/>
<stop offset="1" stop-color="#E6A330"/>
</linearGradient>
</defs>
</svg>
